<svg width="230" height="280" viewBox="0 0 230 280" fill="none" xmlns="http://www.w3.org/2000/svg">
<path d="M166.372 267V79.4C166.186 79.5867 164.039 80.1467 159.932 81.08C156.012 82.0133 151.532 82.9467 146.492 83.88C141.452 84.8133 136.972 85.6533 133.052 86.4C129.132 87.1467 127.079 87.52 126.892 87.52V64.84C130.066 64.0933 133.706 63.0667 137.812 61.76C142.106 60.4533 146.399 58.8667 150.692 57C155.172 55.1333 159.372 52.8 163.292 50C167.399 47.2 170.852 43.9333 173.652 40.2H196.332V267H166.372Z" fill="#F2F2F2"/>
<rect y="40" width="80" height="80" fill="#68B738"/>
<g clip-path="url(#clip0_2403_525)">
<path d="M52.8437 66.767C52.7434 66.317 52.3647 66 51.9325 66C51.9306 66 51.9287 66 51.9269 66C46.9891 66.033 34.9816 66.916 30.1337 74.38C27.6156 78.258 27.3991 83.293 29.4897 89.345C29.5056 89.392 29.5384 89.424 29.56 89.467C28.8128 91.44 28.5231 92.753 28.5156 92.79C28.4069 93.33 28.7303 93.862 29.2366 93.978C29.3022 93.993 29.3678 94 29.4334 94C29.8656 94 30.2547 93.679 30.3494 93.21C30.3691 93.108 32.7578 82.837 41.2028 76.832C41.6341 76.526 41.7503 75.905 41.4625 75.445C41.1747 74.985 40.5934 74.86 40.1622 75.168C35.3734 78.573 32.4241 83.176 30.6897 86.824C29.4484 82.246 29.7737 78.447 31.6759 75.519C35.4194 69.755 44.2984 68.365 49.6581 68.071C48.505 69.872 47.245 73.174 47.245 79C47.245 82.12 46.4153 84.522 44.7803 86.14C42.1591 88.731 37.9009 88.974 34.7866 88.724C34.2691 88.679 33.82 89.095 33.7806 89.646C33.7412 90.196 34.1284 90.676 34.6441 90.718C35.2675 90.769 35.9331 90.8 36.625 90.8C39.7956 90.8 43.4941 90.137 46.0544 87.606C48.0887 85.595 49.12 82.7 49.12 79.001C49.12 69.902 52.3356 67.905 52.3516 67.896C52.7416 67.687 52.9459 67.219 52.8437 66.767Z" fill="white"/>
</g>
<path d="M5.375 158.922V157.453H6.79688V158.922C8.25521 159 9.40625 159.44 10.25 160.242C11.0938 161.039 11.5156 162.031 11.5156 163.219C11.5156 164.38 11.1068 165.367 10.2891 166.18C9.47135 166.992 8.30729 167.44 6.79688 167.523V169H5.375V167.523C4.02083 167.471 2.89323 167.06 1.99219 166.289C1.09115 165.513 0.640625 164.49 0.640625 163.219C0.640625 161.943 1.08854 160.922 1.98438 160.156C2.88542 159.391 4.01562 158.979 5.375 158.922ZM6.79688 160.219V166.219C7.77604 166.172 8.54688 165.888 9.10938 165.367C9.67188 164.846 9.95312 164.13 9.95312 163.219C9.95312 162.323 9.67708 161.615 9.125 161.094C8.57292 160.568 7.79688 160.276 6.79688 160.219ZM5.375 160.227C4.43229 160.268 3.66927 160.547 3.08594 161.062C2.5026 161.578 2.21094 162.297 2.21094 163.219C2.21094 164.13 2.4974 164.846 3.07031 165.367C3.64844 165.888 4.41667 166.169 5.375 166.211V160.227ZM13.1641 172.195L13.0078 170.875C13.3151 170.958 13.5833 171 13.8125 171C14.125 171 14.375 170.948 14.5625 170.844C14.75 170.74 14.9036 170.594 15.0234 170.406C15.112 170.266 15.2552 169.917 15.4531 169.359C15.4792 169.281 15.5208 169.167 15.5781 169.016L12.4297 160.703H13.9453L15.6719 165.508C15.8958 166.117 16.0964 166.758 16.2734 167.43C16.4349 166.784 16.6276 166.154 16.8516 165.539L18.625 160.703H20.0312L16.875 169.141C16.5365 170.052 16.2734 170.68 16.0859 171.023C15.8359 171.487 15.5495 171.826 15.2266 172.039C14.9036 172.258 14.5182 172.367 14.0703 172.367C13.7995 172.367 13.4974 172.31 13.1641 172.195ZM21.2344 160.703H22.6406V164.156H26.5391V160.703H27.9453V169H26.5391V165.32H22.6406V169H21.2344V160.703ZM30.0625 160.703H31.4688V164.289C31.9167 164.289 32.2292 164.203 32.4062 164.031C32.5885 163.859 32.8542 163.359 33.2031 162.531C33.4792 161.875 33.7031 161.443 33.875 161.234C34.0469 161.026 34.2448 160.885 34.4688 160.812C34.6927 160.74 35.0521 160.703 35.5469 160.703H35.8281V161.867L35.4375 161.859C35.0677 161.859 34.8307 161.914 34.7266 162.023C34.6172 162.138 34.4505 162.479 34.2266 163.047C34.013 163.589 33.8177 163.964 33.6406 164.172C33.4635 164.38 33.1901 164.57 32.8203 164.742C33.4245 164.904 34.0182 165.466 34.6016 166.43L36.1406 169H34.5938L33.0938 166.43C32.7865 165.914 32.5182 165.576 32.2891 165.414C32.0599 165.247 31.7865 165.164 31.4688 165.164V169H30.0625V160.703ZM37.0938 160.703H38.5V167.844H42.3906V160.703H43.7969V167.844H44.7031V171.352H43.5469V169H37.0938V160.703ZM46.2422 160.703H47.6484V167.031L51.5469 160.703H53.0625V169H51.6562V162.711L47.7578 169H46.2422V160.703ZM54.6562 164.852C54.6562 163.315 55.0833 162.177 55.9375 161.438C56.651 160.823 57.5208 160.516 58.5469 160.516C59.6875 160.516 60.6198 160.891 61.3438 161.641C62.0677 162.385 62.4297 163.417 62.4297 164.734C62.4297 165.802 62.2682 166.643 61.9453 167.258C61.6276 167.867 61.1615 168.341 60.5469 168.68C59.9375 169.018 59.2708 169.188 58.5469 169.188C57.3854 169.188 56.4453 168.815 55.7266 168.07C55.013 167.326 54.6562 166.253 54.6562 164.852ZM56.1016 164.852C56.1016 165.914 56.3333 166.711 56.7969 167.242C57.2604 167.768 57.8438 168.031 58.5469 168.031C59.2448 168.031 59.8255 167.766 60.2891 167.234C60.7526 166.703 60.9844 165.893 60.9844 164.805C60.9844 163.779 60.75 163.003 60.2812 162.477C59.8177 161.945 59.2396 161.68 58.5469 161.68C57.8438 161.68 57.2604 161.943 56.7969 162.469C56.3333 162.995 56.1016 163.789 56.1016 164.852ZM64.0938 160.703H65.5V164.156H69.3984V160.703H70.8047V169H69.3984V165.32H65.5V169H64.0938V160.703ZM78.3438 167.977C77.8229 168.419 77.3203 168.732 76.8359 168.914C76.3568 169.096 75.8411 169.188 75.2891 169.188C74.3776 169.188 73.6771 168.966 73.1875 168.523C72.6979 168.076 72.4531 167.505 72.4531 166.812C72.4531 166.406 72.5443 166.036 72.7266 165.703C72.9141 165.365 73.1562 165.094 73.4531 164.891C73.7552 164.688 74.0938 164.534 74.4688 164.43C74.7448 164.357 75.1615 164.286 75.7188 164.219C76.8542 164.083 77.6901 163.922 78.2266 163.734C78.2318 163.542 78.2344 163.419 78.2344 163.367C78.2344 162.794 78.1016 162.391 77.8359 162.156C77.4766 161.839 76.9427 161.68 76.2344 161.68C75.5729 161.68 75.0833 161.797 74.7656 162.031C74.4531 162.26 74.2214 162.669 74.0703 163.258L72.6953 163.07C72.8203 162.482 73.026 162.008 73.3125 161.648C73.599 161.284 74.013 161.005 74.5547 160.812C75.0964 160.615 75.724 160.516 76.4375 160.516C77.1458 160.516 77.7214 160.599 78.1641 160.766C78.6068 160.932 78.9323 161.143 79.1406 161.398C79.349 161.648 79.4948 161.966 79.5781 162.352C79.625 162.591 79.6484 163.023 79.6484 163.648V165.523C79.6484 166.831 79.6771 167.659 79.7344 168.008C79.7969 168.352 79.9167 168.682 80.0938 169H78.625C78.4792 168.708 78.3854 168.367 78.3438 167.977ZM78.2266 164.836C77.7161 165.044 76.9505 165.221 75.9297 165.367C75.3516 165.451 74.9427 165.544 74.7031 165.648C74.4635 165.753 74.2786 165.906 74.1484 166.109C74.0182 166.307 73.9531 166.529 73.9531 166.773C73.9531 167.148 74.0938 167.461 74.375 167.711C74.6615 167.961 75.0781 168.086 75.625 168.086C76.1667 168.086 76.6484 167.969 77.0703 167.734C77.4922 167.495 77.8021 167.169 78 166.758C78.151 166.44 78.2266 165.971 78.2266 165.352V164.836ZM82.5234 160.703H89.0547V169H87.6562V161.867H83.9297V166C83.9297 166.964 83.8984 167.599 83.8359 167.906C83.7734 168.214 83.6016 168.482 83.3203 168.711C83.0391 168.94 82.6328 169.055 82.1016 169.055C81.7734 169.055 81.3958 169.034 80.9688 168.992V167.82H81.5859C81.8776 167.82 82.0859 167.792 82.2109 167.734C82.3359 167.672 82.4193 167.576 82.4609 167.445C82.5026 167.315 82.5234 166.891 82.5234 166.172V160.703ZM91.1562 160.703H92.5625V163.945H94.3438C95.5052 163.945 96.3984 164.172 97.0234 164.625C97.6536 165.073 97.9688 165.693 97.9688 166.484C97.9688 167.177 97.7057 167.771 97.1797 168.266C96.6589 168.755 95.8229 169 94.6719 169H91.1562V160.703ZM92.5625 167.844H94.0391C94.9297 167.844 95.5651 167.734 95.9453 167.516C96.3255 167.297 96.5156 166.956 96.5156 166.492C96.5156 166.133 96.375 165.812 96.0938 165.531C95.8125 165.25 95.1901 165.109 94.2266 165.109H92.5625V167.844ZM99.5312 160.703H100.938V164.156H104.836V160.703H106.242V169H104.836V165.32H100.938V169H99.5312V160.703ZM107.844 164.852C107.844 163.315 108.271 162.177 109.125 161.438C109.839 160.823 110.708 160.516 111.734 160.516C112.875 160.516 113.807 160.891 114.531 161.641C115.255 162.385 115.617 163.417 115.617 164.734C115.617 165.802 115.456 166.643 115.133 167.258C114.815 167.867 114.349 168.341 113.734 168.68C113.125 169.018 112.458 169.188 111.734 169.188C110.573 169.188 109.633 168.815 108.914 168.07C108.201 167.326 107.844 166.253 107.844 164.852ZM109.289 164.852C109.289 165.914 109.521 166.711 109.984 167.242C110.448 167.768 111.031 168.031 111.734 168.031C112.432 168.031 113.013 167.766 113.477 167.234C113.94 166.703 114.172 165.893 114.172 164.805C114.172 163.779 113.938 163.003 113.469 162.477C113.005 161.945 112.427 161.68 111.734 161.68C111.031 161.68 110.448 161.943 109.984 162.469C109.521 162.995 109.289 163.789 109.289 164.852ZM122.953 166.328L124.406 166.508C124.177 167.357 123.753 168.016 123.133 168.484C122.513 168.953 121.721 169.188 120.758 169.188C119.544 169.188 118.581 168.815 117.867 168.07C117.159 167.32 116.805 166.271 116.805 164.922C116.805 163.526 117.164 162.443 117.883 161.672C118.602 160.901 119.534 160.516 120.68 160.516C121.789 160.516 122.695 160.893 123.398 161.648C124.102 162.404 124.453 163.466 124.453 164.836C124.453 164.919 124.451 165.044 124.445 165.211H118.258C118.31 166.122 118.568 166.82 119.031 167.305C119.495 167.789 120.073 168.031 120.766 168.031C121.281 168.031 121.721 167.896 122.086 167.625C122.451 167.354 122.74 166.922 122.953 166.328ZM118.336 164.055H122.969C122.906 163.357 122.729 162.833 122.438 162.484C121.99 161.943 121.409 161.672 120.695 161.672C120.049 161.672 119.505 161.888 119.062 162.32C118.625 162.753 118.383 163.331 118.336 164.055ZM130.641 160.703H137.188V169H135.781V161.867H132.047V169H130.641V160.703ZM139.305 160.703H140.711V167.031L144.609 160.703H146.125V169H144.719V162.711L140.82 169H139.305V160.703ZM147.484 160.703H154.227V161.867H151.555V169H150.156V161.867H147.484V160.703ZM160.797 167.977C160.276 168.419 159.773 168.732 159.289 168.914C158.81 169.096 158.294 169.188 157.742 169.188C156.831 169.188 156.13 168.966 155.641 168.523C155.151 168.076 154.906 167.505 154.906 166.812C154.906 166.406 154.997 166.036 155.18 165.703C155.367 165.365 155.609 165.094 155.906 164.891C156.208 164.688 156.547 164.534 156.922 164.43C157.198 164.357 157.615 164.286 158.172 164.219C159.307 164.083 160.143 163.922 160.68 163.734C160.685 163.542 160.688 163.419 160.688 163.367C160.688 162.794 160.555 162.391 160.289 162.156C159.93 161.839 159.396 161.68 158.688 161.68C158.026 161.68 157.536 161.797 157.219 162.031C156.906 162.26 156.674 162.669 156.523 163.258L155.148 163.07C155.273 162.482 155.479 162.008 155.766 161.648C156.052 161.284 156.466 161.005 157.008 160.812C157.549 160.615 158.177 160.516 158.891 160.516C159.599 160.516 160.174 160.599 160.617 160.766C161.06 160.932 161.385 161.143 161.594 161.398C161.802 161.648 161.948 161.966 162.031 162.352C162.078 162.591 162.102 163.023 162.102 163.648V165.523C162.102 166.831 162.13 167.659 162.188 168.008C162.25 168.352 162.37 168.682 162.547 169H161.078C160.932 168.708 160.839 168.367 160.797 167.977ZM160.68 164.836C160.169 165.044 159.404 165.221 158.383 165.367C157.805 165.451 157.396 165.544 157.156 165.648C156.917 165.753 156.732 165.906 156.602 166.109C156.471 166.307 156.406 166.529 156.406 166.773C156.406 167.148 156.547 167.461 156.828 167.711C157.115 167.961 157.531 168.086 158.078 168.086C158.62 168.086 159.102 167.969 159.523 167.734C159.945 167.495 160.255 167.169 160.453 166.758C160.604 166.44 160.68 165.971 160.68 165.352V164.836ZM164.297 160.703H165.703V164.156H169.602V160.703H171.008V169H169.602V165.32H165.703V169H164.297V160.703ZM173.133 160.703H174.539V167.031L178.438 160.703H179.953V169H178.547V162.711L174.648 169H173.133V160.703ZM187.75 166.328L189.203 166.508C188.974 167.357 188.549 168.016 187.93 168.484C187.31 168.953 186.518 169.188 185.555 169.188C184.341 169.188 183.378 168.815 182.664 168.07C181.956 167.32 181.602 166.271 181.602 164.922C181.602 163.526 181.961 162.443 182.68 161.672C183.398 160.901 184.331 160.516 185.477 160.516C186.586 160.516 187.492 160.893 188.195 161.648C188.898 162.404 189.25 163.466 189.25 164.836C189.25 164.919 189.247 165.044 189.242 165.211H183.055C183.107 166.122 183.365 166.82 183.828 167.305C184.292 167.789 184.87 168.031 185.562 168.031C186.078 168.031 186.518 167.896 186.883 167.625C187.247 167.354 187.536 166.922 187.75 166.328ZM183.133 164.055H187.766C187.703 163.357 187.526 162.833 187.234 162.484C186.786 161.943 186.206 161.672 185.492 161.672C184.846 161.672 184.302 161.888 183.859 162.32C183.422 162.753 183.18 163.331 183.133 164.055ZM6.46875 189.961L7.85156 190.141C7.70052 191.094 7.3125 191.841 6.6875 192.383C6.06771 192.919 5.30469 193.188 4.39844 193.188C3.26302 193.188 2.34896 192.818 1.65625 192.078C0.96875 191.333 0.625 190.268 0.625 188.883C0.625 187.987 0.773438 187.203 1.07031 186.531C1.36719 185.859 1.81771 185.357 2.42188 185.023C3.03125 184.685 3.69271 184.516 4.40625 184.516C5.30729 184.516 6.04427 184.745 6.61719 185.203C7.1901 185.656 7.55729 186.302 7.71875 187.141L6.35156 187.352C6.22135 186.794 5.98958 186.375 5.65625 186.094C5.32812 185.812 4.92969 185.672 4.46094 185.672C3.7526 185.672 3.17708 185.927 2.73438 186.438C2.29167 186.943 2.07031 187.745 2.07031 188.844C2.07031 189.958 2.28385 190.768 2.71094 191.273C3.13802 191.779 3.69531 192.031 4.38281 192.031C4.9349 192.031 5.39583 191.862 5.76562 191.523C6.13542 191.185 6.36979 190.664 6.46875 189.961ZM8.71875 188.852C8.71875 187.315 9.14583 186.177 10 185.438C10.7135 184.823 11.5833 184.516 12.6094 184.516C13.75 184.516 14.6823 184.891 15.4062 185.641C16.1302 186.385 16.4922 187.417 16.4922 188.734C16.4922 189.802 16.3307 190.643 16.0078 191.258C15.6901 191.867 15.224 192.341 14.6094 192.68C14 193.018 13.3333 193.188 12.6094 193.188C11.4479 193.188 10.5078 192.815 9.78906 192.07C9.07552 191.326 8.71875 190.253 8.71875 188.852ZM10.1641 188.852C10.1641 189.914 10.3958 190.711 10.8594 191.242C11.3229 191.768 11.9062 192.031 12.6094 192.031C13.3073 192.031 13.888 191.766 14.3516 191.234C14.8151 190.703 15.0469 189.893 15.0469 188.805C15.0469 187.779 14.8125 187.003 14.3438 186.477C13.8802 185.945 13.3021 185.68 12.6094 185.68C11.9062 185.68 11.3229 185.943 10.8594 186.469C10.3958 186.995 10.1641 187.789 10.1641 188.852ZM18.8984 184.703H24.6797V191.844H25.5781V195.352H24.4219V193H17.8906V195.352H16.7344V191.844H17.4766C18.4661 190.5 18.9401 188.12 18.8984 184.703ZM20.0703 185.867C19.9661 188.56 19.5495 190.552 18.8203 191.844H23.2812V185.867H20.0703ZM32.8125 190.328L34.2656 190.508C34.0365 191.357 33.612 192.016 32.9922 192.484C32.3724 192.953 31.5807 193.188 30.6172 193.188C29.4036 193.188 28.4401 192.815 27.7266 192.07C27.0182 191.32 26.6641 190.271 26.6641 188.922C26.6641 187.526 27.0234 186.443 27.7422 185.672C28.4609 184.901 29.3932 184.516 30.5391 184.516C31.6484 184.516 32.5547 184.893 33.2578 185.648C33.9609 186.404 34.3125 187.466 34.3125 188.836C34.3125 188.919 34.3099 189.044 34.3047 189.211H28.1172C28.1693 190.122 28.4271 190.82 28.8906 191.305C29.3542 191.789 29.9323 192.031 30.625 192.031C31.1406 192.031 31.5807 191.896 31.9453 191.625C32.3099 191.354 32.599 190.922 32.8125 190.328ZM28.1953 188.055H32.8281C32.7656 187.357 32.5885 186.833 32.2969 186.484C31.849 185.943 31.2682 185.672 30.5547 185.672C29.9089 185.672 29.3646 185.888 28.9219 186.32C28.4844 186.753 28.2422 187.331 28.1953 188.055ZM36.0391 196.18V184.703H37.3203V185.781C37.6224 185.359 37.9635 185.044 38.3438 184.836C38.724 184.622 39.1849 184.516 39.7266 184.516C40.4349 184.516 41.0599 184.698 41.6016 185.062C42.1432 185.427 42.5521 185.943 42.8281 186.609C43.1042 187.271 43.2422 187.997 43.2422 188.789C43.2422 189.638 43.0885 190.404 42.7812 191.086C42.4792 191.763 42.0365 192.284 41.4531 192.648C40.875 193.008 40.2656 193.188 39.625 193.188C39.1562 193.188 38.7344 193.089 38.3594 192.891C37.9896 192.693 37.6849 192.443 37.4453 192.141V196.18H36.0391ZM37.3125 188.898C37.3125 189.966 37.5286 190.755 37.9609 191.266C38.3932 191.776 38.9167 192.031 39.5312 192.031C40.1562 192.031 40.6901 191.768 41.1328 191.242C41.5807 190.711 41.8047 189.891 41.8047 188.781C41.8047 187.724 41.5859 186.932 41.1484 186.406C40.7161 185.88 40.1979 185.617 39.5938 185.617C38.9948 185.617 38.4635 185.898 38 186.461C37.5417 187.018 37.3125 187.831 37.3125 188.898ZM49.9609 184.703V188.289C50.4089 188.289 50.724 188.203 50.9062 188.031C51.0885 187.859 51.3542 187.359 51.7031 186.531C52.0312 185.745 52.3255 185.242 52.5859 185.023C52.8411 184.81 53.2474 184.703 53.8047 184.703H54.3203V185.867L53.9375 185.859C53.5625 185.859 53.3229 185.914 53.2188 186.023C53.1094 186.138 52.9427 186.479 52.7188 187.047C52.5104 187.589 52.3177 187.964 52.1406 188.172C51.9635 188.38 51.6875 188.57 51.3125 188.742C51.9219 188.904 52.5156 189.466 53.0938 190.43L54.6406 193H53.0938L51.5859 190.43C51.2786 189.909 51.0104 189.568 50.7812 189.406C50.5521 189.245 50.2786 189.164 49.9609 189.164V193H48.5234V189.164C48.2109 189.164 47.9401 189.245 47.7109 189.406C47.4818 189.562 47.2135 189.904 46.9062 190.43L45.3984 193H43.8516L45.3906 190.43C45.974 189.466 46.5703 188.904 47.1797 188.742C46.763 188.549 46.4714 188.341 46.3047 188.117C46.138 187.888 45.888 187.346 45.5547 186.492C45.4401 186.206 45.3177 186.029 45.1875 185.961C45.0521 185.893 44.8516 185.859 44.5859 185.859C44.5182 185.859 44.3802 185.862 44.1719 185.867V184.703H44.3672C44.9089 184.703 45.2891 184.737 45.5078 184.805C45.7318 184.867 45.9297 185.005 46.1016 185.219C46.2786 185.427 46.5078 185.865 46.7891 186.531C47.1328 187.349 47.3932 187.846 47.5703 188.023C47.7526 188.201 48.0703 188.289 48.5234 188.289V184.703H49.9609ZM55.6484 184.703H57.0547V191.031L60.9531 184.703H62.4688V193H61.0625V186.711L57.1641 193H55.6484V184.703ZM63.8281 184.703H70.5703V185.867H67.8984V193H66.5V185.867H63.8281V184.703ZM75.6094 184.703H82.3516V185.867H79.6797V193H78.2812V185.867H75.6094V184.703ZM82.9844 188.852C82.9844 187.315 83.4115 186.177 84.2656 185.438C84.9792 184.823 85.849 184.516 86.875 184.516C88.0156 184.516 88.9479 184.891 89.6719 185.641C90.3958 186.385 90.7578 187.417 90.7578 188.734C90.7578 189.802 90.5964 190.643 90.2734 191.258C89.9557 191.867 89.4896 192.341 88.875 192.68C88.2656 193.018 87.599 193.188 86.875 193.188C85.7135 193.188 84.7734 192.815 84.0547 192.07C83.3411 191.326 82.9844 190.253 82.9844 188.852ZM84.4297 188.852C84.4297 189.914 84.6615 190.711 85.125 191.242C85.5885 191.768 86.1719 192.031 86.875 192.031C87.5729 192.031 88.1536 191.766 88.6172 191.234C89.0807 190.703 89.3125 189.893 89.3125 188.805C89.3125 187.779 89.0781 187.003 88.6094 186.477C88.1458 185.945 87.5677 185.68 86.875 185.68C86.1719 185.68 85.5885 185.943 85.125 186.469C84.6615 186.995 84.4297 187.789 84.4297 188.852ZM92.7422 184.703H99.2734V193H97.875V185.867H94.1484V190C94.1484 190.964 94.1172 191.599 94.0547 191.906C93.9922 192.214 93.8203 192.482 93.5391 192.711C93.2578 192.94 92.8516 193.055 92.3203 193.055C91.9922 193.055 91.6146 193.034 91.1875 192.992V191.82H91.8047C92.0964 191.82 92.3047 191.792 92.4297 191.734C92.5547 191.672 92.638 191.576 92.6797 191.445C92.7214 191.315 92.7422 190.891 92.7422 190.172V184.703ZM101.375 184.703H102.781V187.945H104.562C105.724 187.945 106.617 188.172 107.242 188.625C107.872 189.073 108.188 189.693 108.188 190.484C108.188 191.177 107.924 191.771 107.398 192.266C106.878 192.755 106.042 193 104.891 193H101.375V184.703ZM102.781 191.844H104.258C105.148 191.844 105.784 191.734 106.164 191.516C106.544 191.297 106.734 190.956 106.734 190.492C106.734 190.133 106.594 189.812 106.312 189.531C106.031 189.25 105.409 189.109 104.445 189.109H102.781V191.844ZM109.734 184.703H111.141V188.289C111.589 188.289 111.901 188.203 112.078 188.031C112.26 187.859 112.526 187.359 112.875 186.531C113.151 185.875 113.375 185.443 113.547 185.234C113.719 185.026 113.917 184.885 114.141 184.812C114.365 184.74 114.724 184.703 115.219 184.703H115.5V185.867L115.109 185.859C114.74 185.859 114.503 185.914 114.398 186.023C114.289 186.138 114.122 186.479 113.898 187.047C113.685 187.589 113.49 187.964 113.312 188.172C113.135 188.38 112.862 188.57 112.492 188.742C113.096 188.904 113.69 189.466 114.273 190.43L115.812 193H114.266L112.766 190.43C112.458 189.914 112.19 189.576 111.961 189.414C111.732 189.247 111.458 189.164 111.141 189.164V193H109.734V184.703ZM116.406 188.852C116.406 187.315 116.833 186.177 117.688 185.438C118.401 184.823 119.271 184.516 120.297 184.516C121.438 184.516 122.37 184.891 123.094 185.641C123.818 186.385 124.18 187.417 124.18 188.734C124.18 189.802 124.018 190.643 123.695 191.258C123.378 191.867 122.911 192.341 122.297 192.68C121.688 193.018 121.021 193.188 120.297 193.188C119.135 193.188 118.195 192.815 117.477 192.07C116.763 191.326 116.406 190.253 116.406 188.852ZM117.852 188.852C117.852 189.914 118.083 190.711 118.547 191.242C119.01 191.768 119.594 192.031 120.297 192.031C120.995 192.031 121.576 191.766 122.039 191.234C122.503 190.703 122.734 189.893 122.734 188.805C122.734 187.779 122.5 187.003 122.031 186.477C121.568 185.945 120.99 185.68 120.297 185.68C119.594 185.68 119.01 185.943 118.547 186.469C118.083 186.995 117.852 187.789 117.852 188.852ZM130.297 184.703H136.844V193H135.438V185.867H131.703V193H130.297V184.703ZM138.438 188.852C138.438 187.315 138.865 186.177 139.719 185.438C140.432 184.823 141.302 184.516 142.328 184.516C143.469 184.516 144.401 184.891 145.125 185.641C145.849 186.385 146.211 187.417 146.211 188.734C146.211 189.802 146.049 190.643 145.727 191.258C145.409 191.867 144.943 192.341 144.328 192.68C143.719 193.018 143.052 193.188 142.328 193.188C141.167 193.188 140.227 192.815 139.508 192.07C138.794 191.326 138.438 190.253 138.438 188.852ZM139.883 188.852C139.883 189.914 140.115 190.711 140.578 191.242C141.042 191.768 141.625 192.031 142.328 192.031C143.026 192.031 143.607 191.766 144.07 191.234C144.534 190.703 144.766 189.893 144.766 188.805C144.766 187.779 144.531 187.003 144.062 186.477C143.599 185.945 143.021 185.68 142.328 185.68C141.625 185.68 141.042 185.943 140.578 186.469C140.115 186.995 139.883 187.789 139.883 188.852ZM148.195 184.703H154.727V193H153.328V185.867H149.602V190C149.602 190.964 149.57 191.599 149.508 191.906C149.445 192.214 149.273 192.482 148.992 192.711C148.711 192.94 148.305 193.055 147.773 193.055C147.445 193.055 147.068 193.034 146.641 192.992V191.82H147.258C147.549 191.82 147.758 191.792 147.883 191.734C148.008 191.672 148.091 191.576 148.133 191.445C148.174 191.315 148.195 190.891 148.195 190.172V184.703ZM162.531 190.328L163.984 190.508C163.755 191.357 163.331 192.016 162.711 192.484C162.091 192.953 161.299 193.188 160.336 193.188C159.122 193.188 158.159 192.815 157.445 192.07C156.737 191.32 156.383 190.271 156.383 188.922C156.383 187.526 156.742 186.443 157.461 185.672C158.18 184.901 159.112 184.516 160.258 184.516C161.367 184.516 162.273 184.893 162.977 185.648C163.68 186.404 164.031 187.466 164.031 188.836C164.031 188.919 164.029 189.044 164.023 189.211H157.836C157.888 190.122 158.146 190.82 158.609 191.305C159.073 191.789 159.651 192.031 160.344 192.031C160.859 192.031 161.299 191.896 161.664 191.625C162.029 191.354 162.318 190.922 162.531 190.328ZM157.914 188.055H162.547C162.484 187.357 162.307 186.833 162.016 186.484C161.568 185.943 160.987 185.672 160.273 185.672C159.628 185.672 159.083 185.888 158.641 186.32C158.203 186.753 157.961 187.331 157.914 188.055ZM167.234 189.25V188.148C167.828 188.143 168.232 188.12 168.445 188.078C168.664 188.036 168.87 187.911 169.062 187.703C169.255 187.495 169.352 187.234 169.352 186.922C169.352 186.542 169.224 186.24 168.969 186.016C168.719 185.786 168.393 185.672 167.992 185.672C167.201 185.672 166.646 186.138 166.328 187.07L164.992 186.852C165.409 185.294 166.414 184.516 168.008 184.516C168.893 184.516 169.586 184.758 170.086 185.242C170.591 185.727 170.844 186.305 170.844 186.977C170.844 187.654 170.516 188.193 169.859 188.594C170.276 188.818 170.589 189.104 170.797 189.453C171.005 189.797 171.109 190.206 171.109 190.68C171.109 191.424 170.839 192.029 170.297 192.492C169.755 192.956 168.997 193.188 168.023 193.188C166.133 193.188 165.036 192.346 164.734 190.664L166.055 190.383C166.174 190.914 166.417 191.326 166.781 191.617C167.151 191.909 167.573 192.055 168.047 192.055C168.521 192.055 168.914 191.922 169.227 191.656C169.544 191.385 169.703 191.042 169.703 190.625C169.703 190.302 169.604 190.021 169.406 189.781C169.208 189.542 168.997 189.393 168.773 189.336C168.549 189.273 168.143 189.242 167.555 189.242C167.508 189.242 167.401 189.245 167.234 189.25ZM172.75 184.703H174.156V188.156H178.055V184.703H179.461V193H178.055V189.32H174.156V193H172.75V184.703ZM189.484 184.703H190.891V193H189.484V184.703ZM181.617 184.703H183.023V187.945H184.805C185.966 187.945 186.859 188.172 187.484 188.625C188.115 189.073 188.43 189.693 188.43 190.484C188.43 191.177 188.167 191.771 187.641 192.266C187.12 192.755 186.284 193 185.133 193H181.617V184.703ZM183.023 191.844H184.5C185.391 191.844 186.026 191.734 186.406 191.516C186.786 191.297 186.977 190.956 186.977 190.492C186.977 190.133 186.836 189.812 186.555 189.531C186.273 189.25 185.651 189.109 184.688 189.109H183.023V191.844ZM198.766 190.328L200.219 190.508C199.99 191.357 199.565 192.016 198.945 192.484C198.326 192.953 197.534 193.188 196.57 193.188C195.357 193.188 194.393 192.815 193.68 192.07C192.971 191.32 192.617 190.271 192.617 188.922C192.617 187.526 192.977 186.443 193.695 185.672C194.414 184.901 195.346 184.516 196.492 184.516C197.602 184.516 198.508 184.893 199.211 185.648C199.914 186.404 200.266 187.466 200.266 188.836C200.266 188.919 200.263 189.044 200.258 189.211H194.07C194.122 190.122 194.38 190.82 194.844 191.305C195.307 191.789 195.885 192.031 196.578 192.031C197.094 192.031 197.534 191.896 197.898 191.625C198.263 191.354 198.552 190.922 198.766 190.328ZM194.148 188.055H198.781C198.719 187.357 198.542 186.833 198.25 186.484C197.802 185.943 197.221 185.672 196.508 185.672C195.862 185.672 195.318 185.888 194.875 186.32C194.438 186.753 194.195 187.331 194.148 188.055ZM1.0625 208.703H7.60938V217H6.20312V209.867H2.46875V217H1.0625V208.703ZM9.72656 208.703H11.1328V215.031L15.0312 208.703H16.5469V217H15.1406V210.711L11.2422 217H9.72656V208.703ZM17.9062 208.703H24.6484V209.867H21.9766V217H20.5781V209.867H17.9062V208.703ZM31.2188 215.977C30.6979 216.419 30.1953 216.732 29.7109 216.914C29.2318 217.096 28.7161 217.188 28.1641 217.188C27.2526 217.188 26.5521 216.966 26.0625 216.523C25.5729 216.076 25.3281 215.505 25.3281 214.812C25.3281 214.406 25.4193 214.036 25.6016 213.703C25.7891 213.365 26.0312 213.094 26.3281 212.891C26.6302 212.688 26.9688 212.534 27.3438 212.43C27.6198 212.357 28.0365 212.286 28.5938 212.219C29.7292 212.083 30.5651 211.922 31.1016 211.734C31.1068 211.542 31.1094 211.419 31.1094 211.367C31.1094 210.794 30.9766 210.391 30.7109 210.156C30.3516 209.839 29.8177 209.68 29.1094 209.68C28.4479 209.68 27.9583 209.797 27.6406 210.031C27.3281 210.26 27.0964 210.669 26.9453 211.258L25.5703 211.07C25.6953 210.482 25.901 210.008 26.1875 209.648C26.474 209.284 26.888 209.005 27.4297 208.812C27.9714 208.615 28.599 208.516 29.3125 208.516C30.0208 208.516 30.5964 208.599 31.0391 208.766C31.4818 208.932 31.8073 209.143 32.0156 209.398C32.224 209.648 32.3698 209.966 32.4531 210.352C32.5 210.591 32.5234 211.023 32.5234 211.648V213.523C32.5234 214.831 32.5521 215.659 32.6094 216.008C32.6719 216.352 32.7917 216.682 32.9688 217H31.5C31.3542 216.708 31.2604 216.367 31.2188 215.977ZM31.1016 212.836C30.5911 213.044 29.8255 213.221 28.8047 213.367C28.2266 213.451 27.8177 213.544 27.5781 213.648C27.3385 213.753 27.1536 213.906 27.0234 214.109C26.8932 214.307 26.8281 214.529 26.8281 214.773C26.8281 215.148 26.9688 215.461 27.25 215.711C27.5365 215.961 27.9531 216.086 28.5 216.086C29.0417 216.086 29.5234 215.969 29.9453 215.734C30.3672 215.495 30.6771 215.169 30.875 214.758C31.026 214.44 31.1016 213.971 31.1016 213.352V212.836ZM33.5938 208.703H40.3359V209.867H37.6641V217H36.2656V209.867H33.5938V208.703ZM47.1719 214.328L48.625 214.508C48.3958 215.357 47.9714 216.016 47.3516 216.484C46.7318 216.953 45.9401 217.188 44.9766 217.188C43.763 217.188 42.7995 216.815 42.0859 216.07C41.3776 215.32 41.0234 214.271 41.0234 212.922C41.0234 211.526 41.3828 210.443 42.1016 209.672C42.8203 208.901 43.7526 208.516 44.8984 208.516C46.0078 208.516 46.9141 208.893 47.6172 209.648C48.3203 210.404 48.6719 211.466 48.6719 212.836C48.6719 212.919 48.6693 213.044 48.6641 213.211H42.4766C42.5286 214.122 42.7865 214.82 43.25 215.305C43.7135 215.789 44.2917 216.031 44.9844 216.031C45.5 216.031 45.9401 215.896 46.3047 215.625C46.6693 215.354 46.9583 214.922 47.1719 214.328ZM42.5547 212.055H47.1875C47.125 211.357 46.9479 210.833 46.6562 210.484C46.2083 209.943 45.6276 209.672 44.9141 209.672C44.2682 209.672 43.724 209.888 43.2812 210.32C42.8438 210.753 42.6016 211.331 42.5547 212.055ZM50.5547 208.703H57.0859V217H55.6875V209.867H51.9609V214C51.9609 214.964 51.9297 215.599 51.8672 215.906C51.8047 216.214 51.6328 216.482 51.3516 216.711C51.0703 216.94 50.6641 217.055 50.1328 217.055C49.8047 217.055 49.4271 217.034 49 216.992V215.82H49.6172C49.9089 215.82 50.1172 215.792 50.2422 215.734C50.3672 215.672 50.4505 215.576 50.4922 215.445C50.5339 215.315 50.5547 214.891 50.5547 214.172V208.703ZM59.1875 208.703H60.5938V211.945H62.375C63.5365 211.945 64.4297 212.172 65.0547 212.625C65.6849 213.073 66 213.693 66 214.484C66 215.177 65.737 215.771 65.2109 216.266C64.6901 216.755 63.8542 217 62.7031 217H59.1875V208.703ZM60.5938 215.844H62.0703C62.9609 215.844 63.5964 215.734 63.9766 215.516C64.3568 215.297 64.5469 214.956 64.5469 214.492C64.5469 214.133 64.4062 213.812 64.125 213.531C63.8438 213.25 63.2214 213.109 62.2578 213.109H60.5938V215.844ZM67.5625 208.703H68.9688V212.156H72.8672V208.703H74.2734V217H72.8672V213.32H68.9688V217H67.5625V208.703ZM84.2969 208.703H85.7031V217H84.2969V208.703ZM76.4297 208.703H77.8359V211.945H79.6172C80.7786 211.945 81.6719 212.172 82.2969 212.625C82.9271 213.073 83.2422 213.693 83.2422 214.484C83.2422 215.177 82.9792 215.771 82.4531 216.266C81.9323 216.755 81.0964 217 79.9453 217H76.4297V208.703ZM77.8359 215.844H79.3125C80.2031 215.844 80.8385 215.734 81.2188 215.516C81.599 215.297 81.7891 214.956 81.7891 214.492C81.7891 214.133 81.6484 213.812 81.3672 213.531C81.0859 213.25 80.4635 213.109 79.5 213.109H77.8359V215.844ZM93.5781 214.328L95.0312 214.508C94.8021 215.357 94.3776 216.016 93.7578 216.484C93.138 216.953 92.3464 217.188 91.3828 217.188C90.1693 217.188 89.2057 216.815 88.4922 216.07C87.7839 215.32 87.4297 214.271 87.4297 212.922C87.4297 211.526 87.7891 210.443 88.5078 209.672C89.2266 208.901 90.1589 208.516 91.3047 208.516C92.4141 208.516 93.3203 208.893 94.0234 209.648C94.7266 210.404 95.0781 211.466 95.0781 212.836C95.0781 212.919 95.0755 213.044 95.0703 213.211H88.8828C88.9349 214.122 89.1927 214.82 89.6562 215.305C90.1198 215.789 90.6979 216.031 91.3906 216.031C91.9062 216.031 92.3464 215.896 92.7109 215.625C93.0755 215.354 93.3646 214.922 93.5781 214.328ZM88.9609 212.055H93.5938C93.5312 211.357 93.3542 210.833 93.0625 210.484C92.6146 209.943 92.0339 209.672 91.3203 209.672C90.6745 209.672 90.1302 209.888 89.6875 210.32C89.25 210.753 89.0078 211.331 88.9609 212.055ZM101.266 208.703H104.508C105.305 208.703 105.896 208.771 106.281 208.906C106.672 209.036 107.005 209.279 107.281 209.633C107.562 209.987 107.703 210.411 107.703 210.906C107.703 211.302 107.62 211.648 107.453 211.945C107.292 212.237 107.047 212.482 106.719 212.68C107.109 212.81 107.432 213.055 107.688 213.414C107.948 213.768 108.078 214.19 108.078 214.68C108.026 215.466 107.745 216.049 107.234 216.43C106.724 216.81 105.982 217 105.008 217H101.266V208.703ZM102.672 212.195H104.172C104.771 212.195 105.182 212.164 105.406 212.102C105.63 212.039 105.831 211.914 106.008 211.727C106.185 211.534 106.273 211.305 106.273 211.039C106.273 210.602 106.117 210.297 105.805 210.125C105.497 209.953 104.969 209.867 104.219 209.867H102.672V212.195ZM102.672 215.844H104.523C105.32 215.844 105.867 215.753 106.164 215.57C106.461 215.383 106.617 215.062 106.633 214.609C106.633 214.344 106.547 214.099 106.375 213.875C106.203 213.646 105.979 213.503 105.703 213.445C105.427 213.383 104.984 213.352 104.375 213.352H102.672V215.844ZM115.25 214.328L116.703 214.508C116.474 215.357 116.049 216.016 115.43 216.484C114.81 216.953 114.018 217.188 113.055 217.188C111.841 217.188 110.878 216.815 110.164 216.07C109.456 215.32 109.102 214.271 109.102 212.922C109.102 211.526 109.461 210.443 110.18 209.672C110.898 208.901 111.831 208.516 112.977 208.516C114.086 208.516 114.992 208.893 115.695 209.648C116.398 210.404 116.75 211.466 116.75 212.836C116.75 212.919 116.747 213.044 116.742 213.211H110.555C110.607 214.122 110.865 214.82 111.328 215.305C111.792 215.789 112.37 216.031 113.062 216.031C113.578 216.031 114.018 215.896 114.383 215.625C114.747 215.354 115.036 214.922 115.25 214.328ZM110.633 212.055H115.266C115.203 211.357 115.026 210.833 114.734 210.484C114.286 209.943 113.706 209.672 112.992 209.672C112.346 209.672 111.802 209.888 111.359 210.32C110.922 210.753 110.68 211.331 110.633 212.055ZM118.523 208.703H119.93V215.844H123.133V208.703H124.539V215.844H127.75V208.703H129.148V215.844H130.078V219.352H128.914V217H118.523V208.703ZM137.141 214.328L138.594 214.508C138.365 215.357 137.94 216.016 137.32 216.484C136.701 216.953 135.909 217.188 134.945 217.188C133.732 217.188 132.768 216.815 132.055 216.07C131.346 215.32 130.992 214.271 130.992 212.922C130.992 211.526 131.352 210.443 132.07 209.672C132.789 208.901 133.721 208.516 134.867 208.516C135.977 208.516 136.883 208.893 137.586 209.648C138.289 210.404 138.641 211.466 138.641 212.836C138.641 212.919 138.638 213.044 138.633 213.211H132.445C132.497 214.122 132.755 214.82 133.219 215.305C133.682 215.789 134.26 216.031 134.953 216.031C135.469 216.031 135.909 215.896 136.273 215.625C136.638 215.354 136.927 214.922 137.141 214.328ZM132.523 212.055H137.156C137.094 211.357 136.917 210.833 136.625 210.484C136.177 209.943 135.596 209.672 134.883 209.672C134.237 209.672 133.693 209.888 133.25 210.32C132.812 210.753 132.57 211.331 132.523 212.055ZM145.781 213.961L147.164 214.141C147.013 215.094 146.625 215.841 146 216.383C145.38 216.919 144.617 217.188 143.711 217.188C142.576 217.188 141.661 216.818 140.969 216.078C140.281 215.333 139.938 214.268 139.938 212.883C139.938 211.987 140.086 211.203 140.383 210.531C140.68 209.859 141.13 209.357 141.734 209.023C142.344 208.685 143.005 208.516 143.719 208.516C144.62 208.516 145.357 208.745 145.93 209.203C146.503 209.656 146.87 210.302 147.031 211.141L145.664 211.352C145.534 210.794 145.302 210.375 144.969 210.094C144.641 209.812 144.242 209.672 143.773 209.672C143.065 209.672 142.49 209.927 142.047 210.438C141.604 210.943 141.383 211.745 141.383 212.844C141.383 213.958 141.596 214.768 142.023 215.273C142.451 215.779 143.008 216.031 143.695 216.031C144.247 216.031 144.708 215.862 145.078 215.523C145.448 215.185 145.682 214.664 145.781 213.961ZM147.609 208.703H154.352V209.867H151.68V217H150.281V209.867H147.609V208.703ZM155.703 208.703H158.945C159.742 208.703 160.333 208.771 160.719 208.906C161.109 209.036 161.443 209.279 161.719 209.633C162 209.987 162.141 210.411 162.141 210.906C162.141 211.302 162.057 211.648 161.891 211.945C161.729 212.237 161.484 212.482 161.156 212.68C161.547 212.81 161.87 213.055 162.125 213.414C162.385 213.768 162.516 214.19 162.516 214.68C162.464 215.466 162.182 216.049 161.672 216.43C161.161 216.81 160.419 217 159.445 217H155.703V208.703ZM157.109 212.195H158.609C159.208 212.195 159.62 212.164 159.844 212.102C160.068 212.039 160.268 211.914 160.445 211.727C160.622 211.534 160.711 211.305 160.711 211.039C160.711 210.602 160.555 210.297 160.242 210.125C159.935 209.953 159.406 209.867 158.656 209.867H157.109V212.195ZM157.109 215.844H158.961C159.758 215.844 160.305 215.753 160.602 215.57C160.898 215.383 161.055 215.062 161.07 214.609C161.07 214.344 160.984 214.099 160.812 213.875C160.641 213.646 160.417 213.503 160.141 213.445C159.865 213.383 159.422 213.352 158.812 213.352H157.109V215.844ZM169.422 215.977C168.901 216.419 168.398 216.732 167.914 216.914C167.435 217.096 166.919 217.188 166.367 217.188C165.456 217.188 164.755 216.966 164.266 216.523C163.776 216.076 163.531 215.505 163.531 214.812C163.531 214.406 163.622 214.036 163.805 213.703C163.992 213.365 164.234 213.094 164.531 212.891C164.833 212.688 165.172 212.534 165.547 212.43C165.823 212.357 166.24 212.286 166.797 212.219C167.932 212.083 168.768 211.922 169.305 211.734C169.31 211.542 169.312 211.419 169.312 211.367C169.312 210.794 169.18 210.391 168.914 210.156C168.555 209.839 168.021 209.68 167.312 209.68C166.651 209.68 166.161 209.797 165.844 210.031C165.531 210.26 165.299 210.669 165.148 211.258L163.773 211.07C163.898 210.482 164.104 210.008 164.391 209.648C164.677 209.284 165.091 209.005 165.633 208.812C166.174 208.615 166.802 208.516 167.516 208.516C168.224 208.516 168.799 208.599 169.242 208.766C169.685 208.932 170.01 209.143 170.219 209.398C170.427 209.648 170.573 209.966 170.656 210.352C170.703 210.591 170.727 211.023 170.727 211.648V213.523C170.727 214.831 170.755 215.659 170.812 216.008C170.875 216.352 170.995 216.682 171.172 217H169.703C169.557 216.708 169.464 216.367 169.422 215.977ZM169.305 212.836C168.794 213.044 168.029 213.221 167.008 213.367C166.43 213.451 166.021 213.544 165.781 213.648C165.542 213.753 165.357 213.906 165.227 214.109C165.096 214.307 165.031 214.529 165.031 214.773C165.031 215.148 165.172 215.461 165.453 215.711C165.74 215.961 166.156 216.086 166.703 216.086C167.245 216.086 167.727 215.969 168.148 215.734C168.57 215.495 168.88 215.169 169.078 214.758C169.229 214.44 169.305 213.971 169.305 213.352V212.836ZM173.312 217V215.398H174.914V217H173.312Z" fill="#444444"/>
<defs>
<clipPath id="clip0_2403_525">
<rect width="30" height="32" fill="white" transform="translate(25 64)"/>
</clipPath>
</defs>
</svg>
