<svg width="248" height="280" viewBox="0 0 248 280" fill="none" xmlns="http://www.w3.org/2000/svg">
<path d="M180.921 269.52C168.601 269.52 158.335 267.187 150.121 262.52C141.908 257.853 135.748 251.133 131.641 242.36C127.535 233.587 125.481 223.227 125.481 211.28V203.72H155.161C155.161 204.467 155.161 205.307 155.161 206.24C155.161 206.987 155.161 207.827 155.161 208.76C155.348 215.48 156.095 221.547 157.401 226.96C158.895 232.373 161.415 236.667 164.961 239.84C168.695 243.013 174.015 244.6 180.921 244.6C188.201 244.6 193.708 242.92 197.441 239.56C201.175 236.013 203.695 231.067 205.001 224.72C206.308 218.373 206.961 211.093 206.961 202.88C206.961 190.933 204.721 181.227 200.241 173.76C195.948 166.107 188.295 161.907 177.281 161.16C176.721 160.973 175.975 160.88 175.041 160.88C174.295 160.88 173.641 160.88 173.081 160.88V130.92C173.641 130.92 174.295 130.92 175.041 130.92C175.788 130.92 176.441 130.92 177.001 130.92C187.641 130.547 195.295 127.747 199.961 122.52C204.628 117.293 206.961 108.613 206.961 96.48C206.961 86.2133 205.188 78 201.641 71.84C198.281 65.68 191.468 62.6 181.201 62.6C170.935 62.6 164.121 66.0533 160.761 72.96C157.401 79.68 155.535 88.36 155.161 99C155.161 99.7467 155.161 100.587 155.161 101.52C155.161 102.267 155.161 103.013 155.161 103.76H125.481V96.2C125.481 84.0667 127.535 73.7067 131.641 65.12C135.748 56.5333 141.908 49.9067 150.121 45.24C158.521 40.5733 168.881 38.24 181.201 38.24C193.708 38.24 204.068 40.5733 212.281 45.24C220.495 49.9067 226.655 56.6267 230.761 65.4C234.868 73.9867 236.921 84.3467 236.921 96.48C236.921 110.107 233.935 121.027 227.961 129.24C222.175 137.453 214.335 143.053 204.441 146.04C211.348 148.093 217.135 151.64 221.801 156.68C226.655 161.72 230.388 168.16 233.001 176C235.615 183.653 236.921 192.613 236.921 202.88C236.921 216.32 235.055 228.08 231.321 238.16C227.588 248.053 221.615 255.8 213.401 261.4C205.188 266.813 194.361 269.52 180.921 269.52Z" fill="#F2F2F2"/>
<rect x="1" y="40" width="80" height="80" fill="#68B738"/>
<path fill-rule="evenodd" clip-rule="evenodd" d="M47.6173 65.0761C47.991 64.9214 48.4211 65.0069 48.7071 65.2929C49.6156 66.2014 50.8038 68.1706 51.7659 71.2108C52.7373 74.2804 53.5 78.5081 53.5 84C53.5 84.5523 53.0523 85 52.5 85H49V94C49 94.5523 48.5523 95 48 95C47.4477 95 47 94.5523 47 94V66C47 65.5956 47.2436 65.2309 47.6173 65.0761ZM49 83H51.4912C51.4053 78.1836 50.7051 74.4875 49.8591 71.8142C49.5807 70.9346 49.2885 70.1715 49 69.519V83Z" fill="white"/>
<path fill-rule="evenodd" clip-rule="evenodd" d="M35 65C35.5523 65 36 65.4477 36 66V94C36 94.5523 35.5523 95 35 95C34.4477 95 34 94.5523 34 94V66C34 65.4477 34.4477 65 35 65Z" fill="white"/>
<path fill-rule="evenodd" clip-rule="evenodd" d="M30.5 65C31.0523 65 31.5 65.4477 31.5 66V71.5C31.5 72.0569 31.692 72.8152 32.2009 73.4166C32.68 73.9828 33.5145 74.5 34.9999 74.5C35.5522 74.5 35.9999 74.9477 35.9999 75.5C35.9999 76.0523 35.5522 76.5 34.9999 76.5C32.9855 76.5 31.57 75.7672 30.6741 74.7084C29.808 73.6848 29.5 72.4431 29.5 71.5V66C29.5 65.4477 29.9477 65 30.5 65Z" fill="white"/>
<path fill-rule="evenodd" clip-rule="evenodd" d="M39.5 65C38.9477 65 38.5 65.4477 38.5 66V71.5C38.5 72.0569 38.308 72.8152 37.7991 73.4166C37.32 73.9828 36.4854 74.5 34.9999 74.5C34.4476 74.5 34.0001 74.9477 34.0001 75.5C34.0001 76.0523 34.4476 76.5 34.9999 76.5C37.0144 76.5 38.43 75.7672 39.3259 74.7084C40.192 73.6848 40.5 72.4431 40.5 71.5V66C40.5 65.4477 40.0523 65 39.5 65Z" fill="white"/>
<path d="M0.609375 165.766L2.05469 165.391C2.16406 165.948 2.45573 166.505 2.92969 167.062C3.40885 167.62 4.04167 167.898 4.82812 167.898C5.63021 167.898 6.26302 167.693 6.72656 167.281C7.1901 166.87 7.42188 166.372 7.42188 165.789C7.42188 165.159 7.17708 164.659 6.6875 164.289C6.19792 163.914 5.53125 163.727 4.6875 163.727H3.96094V162.406C4.65885 162.406 5.19271 162.367 5.5625 162.289C5.93229 162.206 6.25781 162 6.53906 161.672C6.82552 161.339 6.96875 160.961 6.96875 160.539C6.96875 160.039 6.77344 159.604 6.38281 159.234C5.9974 158.865 5.47396 158.68 4.8125 158.68C4.23438 158.68 3.73958 158.826 3.32812 159.117C2.92188 159.404 2.64062 159.786 2.48438 160.266C2.32812 160.74 2.25 161.094 2.25 161.328L0.796875 161C1.15625 158.568 2.5 157.352 4.82812 157.352C5.94792 157.352 6.83594 157.664 7.49219 158.289C8.14844 158.909 8.47656 159.635 8.47656 160.469C8.47656 161.536 7.97135 162.365 6.96094 162.953C7.54427 163.115 8.03125 163.445 8.42188 163.945C8.81771 164.44 9.01562 165.034 9.01562 165.727C9.01562 166.711 8.63281 167.536 7.86719 168.203C7.10677 168.865 6.09635 169.195 4.83594 169.195C2.66927 169.195 1.26042 168.052 0.609375 165.766ZM16.1406 167.977C15.6198 168.419 15.1172 168.732 14.6328 168.914C14.1536 169.096 13.638 169.188 13.0859 169.188C12.1745 169.188 11.474 168.966 10.9844 168.523C10.4948 168.076 10.25 167.505 10.25 166.812C10.25 166.406 10.3411 166.036 10.5234 165.703C10.7109 165.365 10.9531 165.094 11.25 164.891C11.5521 164.688 11.8906 164.534 12.2656 164.43C12.5417 164.357 12.9583 164.286 13.5156 164.219C14.651 164.083 15.487 163.922 16.0234 163.734C16.0286 163.542 16.0312 163.419 16.0312 163.367C16.0312 162.794 15.8984 162.391 15.6328 162.156C15.2734 161.839 14.7396 161.68 14.0312 161.68C13.3698 161.68 12.8802 161.797 12.5625 162.031C12.25 162.26 12.0182 162.669 11.8672 163.258L10.4922 163.07C10.6172 162.482 10.8229 162.008 11.1094 161.648C11.3958 161.284 11.8099 161.005 12.3516 160.812C12.8932 160.615 13.5208 160.516 14.2344 160.516C14.9427 160.516 15.5182 160.599 15.9609 160.766C16.4036 160.932 16.7292 161.143 16.9375 161.398C17.1458 161.648 17.2917 161.966 17.375 162.352C17.4219 162.591 17.4453 163.023 17.4453 163.648V165.523C17.4453 166.831 17.474 167.659 17.5312 168.008C17.5938 168.352 17.7135 168.682 17.8906 169H16.4219C16.276 168.708 16.1823 168.367 16.1406 167.977ZM16.0234 164.836C15.513 165.044 14.7474 165.221 13.7266 165.367C13.1484 165.451 12.7396 165.544 12.5 165.648C12.2604 165.753 12.0755 165.906 11.9453 166.109C11.8151 166.307 11.75 166.529 11.75 166.773C11.75 167.148 11.8906 167.461 12.1719 167.711C12.4583 167.961 12.875 168.086 13.4219 168.086C13.9635 168.086 14.4453 167.969 14.8672 167.734C15.2891 167.495 15.599 167.169 15.7969 166.758C15.9479 166.44 16.0234 165.971 16.0234 165.352V164.836ZM19.6719 160.703H21.8594L24.0391 167.344L26.4609 160.703H28.4844V169H27.0781V162.32L24.625 169H23.3672L21.0469 162V169H19.6719V160.703ZM36.3125 166.328L37.7656 166.508C37.5365 167.357 37.112 168.016 36.4922 168.484C35.8724 168.953 35.0807 169.188 34.1172 169.188C32.9036 169.188 31.9401 168.815 31.2266 168.07C30.5182 167.32 30.1641 166.271 30.1641 164.922C30.1641 163.526 30.5234 162.443 31.2422 161.672C31.9609 160.901 32.8932 160.516 34.0391 160.516C35.1484 160.516 36.0547 160.893 36.7578 161.648C37.4609 162.404 37.8125 163.466 37.8125 164.836C37.8125 164.919 37.8099 165.044 37.8047 165.211H31.6172C31.6693 166.122 31.9271 166.82 32.3906 167.305C32.8542 167.789 33.4323 168.031 34.125 168.031C34.6406 168.031 35.0807 167.896 35.4453 167.625C35.8099 167.354 36.099 166.922 36.3125 166.328ZM31.6953 164.055H36.3281C36.2656 163.357 36.0885 162.833 35.7969 162.484C35.349 161.943 34.7682 161.672 34.0547 161.672C33.4089 161.672 32.8646 161.888 32.4219 162.32C31.9844 162.753 31.7422 163.331 31.6953 164.055ZM39.5469 160.703H40.9531V164.156H44.8516V160.703H46.2578V169H44.8516V165.32H40.9531V169H39.5469V160.703ZM48.3828 160.703H49.7891V167.031L53.6875 160.703H55.2031V169H53.7969V162.711L49.8984 169H48.3828V160.703ZM56.5625 160.703H63.3047V161.867H60.6328V169H59.2344V161.867H56.5625V160.703ZM70.1406 166.328L71.5938 166.508C71.3646 167.357 70.9401 168.016 70.3203 168.484C69.7005 168.953 68.9089 169.188 67.9453 169.188C66.7318 169.188 65.7682 168.815 65.0547 168.07C64.3464 167.32 63.9922 166.271 63.9922 164.922C63.9922 163.526 64.3516 162.443 65.0703 161.672C65.7891 160.901 66.7214 160.516 67.8672 160.516C68.9766 160.516 69.8828 160.893 70.5859 161.648C71.2891 162.404 71.6406 163.466 71.6406 164.836C71.6406 164.919 71.638 165.044 71.6328 165.211H65.4453C65.4974 166.122 65.7552 166.82 66.2188 167.305C66.6823 167.789 67.2604 168.031 67.9531 168.031C68.4688 168.031 68.9089 167.896 69.2734 167.625C69.638 167.354 69.9271 166.922 70.1406 166.328ZM65.5234 164.055H70.1562C70.0938 163.357 69.9167 162.833 69.625 162.484C69.1771 161.943 68.5964 161.672 67.8828 161.672C67.237 161.672 66.6927 161.888 66.25 162.32C65.8125 162.753 65.5703 163.331 65.5234 164.055ZM77.2969 164.852C77.2969 163.315 77.724 162.177 78.5781 161.438C79.2917 160.823 80.1615 160.516 81.1875 160.516C82.3281 160.516 83.2604 160.891 83.9844 161.641C84.7083 162.385 85.0703 163.417 85.0703 164.734C85.0703 165.802 84.9089 166.643 84.5859 167.258C84.2682 167.867 83.8021 168.341 83.1875 168.68C82.5781 169.018 81.9115 169.188 81.1875 169.188C80.026 169.188 79.0859 168.815 78.3672 168.07C77.6536 167.326 77.2969 166.253 77.2969 164.852ZM78.7422 164.852C78.7422 165.914 78.974 166.711 79.4375 167.242C79.901 167.768 80.4844 168.031 81.1875 168.031C81.8854 168.031 82.4661 167.766 82.9297 167.234C83.3932 166.703 83.625 165.893 83.625 164.805C83.625 163.779 83.3906 163.003 82.9219 162.477C82.4583 161.945 81.8802 161.68 81.1875 161.68C80.4844 161.68 79.901 161.943 79.4375 162.469C78.974 162.995 78.7422 163.789 78.7422 164.852ZM87.4766 160.703H93.2578V167.844H94.1562V171.352H93V169H86.4688V171.352H85.3125V167.844H86.0547C87.0443 166.5 87.5182 164.12 87.4766 160.703ZM88.6484 161.867C88.5443 164.56 88.1276 166.552 87.3984 167.844H91.8594V161.867H88.6484ZM95.7109 160.703H97.1172V167.031L101.016 160.703H102.531V169H101.125V162.711L97.2266 169H95.7109V160.703ZM104.656 160.703H106.062V164.156H109.961V160.703H111.367V169H109.961V165.32H106.062V169H104.656V160.703ZM112.945 165.562V164.148H117.266V165.562H112.945ZM119.93 160.703H125.711V167.844H126.609V171.352H125.453V169H118.922V171.352H117.766V167.844H118.508C119.497 166.5 119.971 164.12 119.93 160.703ZM121.102 161.867C120.997 164.56 120.581 166.552 119.852 167.844H124.312V161.867H121.102ZM128.172 160.703H131.414C132.211 160.703 132.802 160.771 133.188 160.906C133.578 161.036 133.911 161.279 134.188 161.633C134.469 161.987 134.609 162.411 134.609 162.906C134.609 163.302 134.526 163.648 134.359 163.945C134.198 164.237 133.953 164.482 133.625 164.68C134.016 164.81 134.339 165.055 134.594 165.414C134.854 165.768 134.984 166.19 134.984 166.68C134.932 167.466 134.651 168.049 134.141 168.43C133.63 168.81 132.888 169 131.914 169H128.172V160.703ZM129.578 164.195H131.078C131.677 164.195 132.089 164.164 132.312 164.102C132.536 164.039 132.737 163.914 132.914 163.727C133.091 163.534 133.18 163.305 133.18 163.039C133.18 162.602 133.023 162.297 132.711 162.125C132.404 161.953 131.875 161.867 131.125 161.867H129.578V164.195ZM129.578 167.844H131.43C132.227 167.844 132.773 167.753 133.07 167.57C133.367 167.383 133.523 167.062 133.539 166.609C133.539 166.344 133.453 166.099 133.281 165.875C133.109 165.646 132.885 165.503 132.609 165.445C132.333 165.383 131.891 165.352 131.281 165.352H129.578V167.844ZM141.891 167.977C141.37 168.419 140.867 168.732 140.383 168.914C139.904 169.096 139.388 169.188 138.836 169.188C137.924 169.188 137.224 168.966 136.734 168.523C136.245 168.076 136 167.505 136 166.812C136 166.406 136.091 166.036 136.273 165.703C136.461 165.365 136.703 165.094 137 164.891C137.302 164.688 137.641 164.534 138.016 164.43C138.292 164.357 138.708 164.286 139.266 164.219C140.401 164.083 141.237 163.922 141.773 163.734C141.779 163.542 141.781 163.419 141.781 163.367C141.781 162.794 141.648 162.391 141.383 162.156C141.023 161.839 140.49 161.68 139.781 161.68C139.12 161.68 138.63 161.797 138.312 162.031C138 162.26 137.768 162.669 137.617 163.258L136.242 163.07C136.367 162.482 136.573 162.008 136.859 161.648C137.146 161.284 137.56 161.005 138.102 160.812C138.643 160.615 139.271 160.516 139.984 160.516C140.693 160.516 141.268 160.599 141.711 160.766C142.154 160.932 142.479 161.143 142.688 161.398C142.896 161.648 143.042 161.966 143.125 162.352C143.172 162.591 143.195 163.023 143.195 163.648V165.523C143.195 166.831 143.224 167.659 143.281 168.008C143.344 168.352 143.464 168.682 143.641 169H142.172C142.026 168.708 141.932 168.367 141.891 167.977ZM141.773 164.836C141.263 165.044 140.497 165.221 139.477 165.367C138.898 165.451 138.49 165.544 138.25 165.648C138.01 165.753 137.826 165.906 137.695 166.109C137.565 166.307 137.5 166.529 137.5 166.773C137.5 167.148 137.641 167.461 137.922 167.711C138.208 167.961 138.625 168.086 139.172 168.086C139.714 168.086 140.195 167.969 140.617 167.734C141.039 167.495 141.349 167.169 141.547 166.758C141.698 166.44 141.773 165.971 141.773 165.352V164.836ZM149.844 160.703H156.391V169H154.984V161.867H151.25V169H149.844V160.703ZM158.508 172.18V160.703H159.789V161.781C160.091 161.359 160.432 161.044 160.812 160.836C161.193 160.622 161.654 160.516 162.195 160.516C162.904 160.516 163.529 160.698 164.07 161.062C164.612 161.427 165.021 161.943 165.297 162.609C165.573 163.271 165.711 163.997 165.711 164.789C165.711 165.638 165.557 166.404 165.25 167.086C164.948 167.763 164.505 168.284 163.922 168.648C163.344 169.008 162.734 169.188 162.094 169.188C161.625 169.188 161.203 169.089 160.828 168.891C160.458 168.693 160.154 168.443 159.914 168.141V172.18H158.508ZM159.781 164.898C159.781 165.966 159.997 166.755 160.43 167.266C160.862 167.776 161.385 168.031 162 168.031C162.625 168.031 163.159 167.768 163.602 167.242C164.049 166.711 164.273 165.891 164.273 164.781C164.273 163.724 164.055 162.932 163.617 162.406C163.185 161.88 162.667 161.617 162.062 161.617C161.464 161.617 160.932 161.898 160.469 162.461C160.01 163.018 159.781 163.831 159.781 164.898ZM167.414 160.703H168.82V167.031L172.719 160.703H174.234V169H172.828V162.711L168.93 169H167.414V160.703ZM182.031 166.328L183.484 166.508C183.255 167.357 182.831 168.016 182.211 168.484C181.591 168.953 180.799 169.188 179.836 169.188C178.622 169.188 177.659 168.815 176.945 168.07C176.237 167.32 175.883 166.271 175.883 164.922C175.883 163.526 176.242 162.443 176.961 161.672C177.68 160.901 178.612 160.516 179.758 160.516C180.867 160.516 181.773 160.893 182.477 161.648C183.18 162.404 183.531 163.466 183.531 164.836C183.531 164.919 183.529 165.044 183.523 165.211H177.336C177.388 166.122 177.646 166.82 178.109 167.305C178.573 167.789 179.151 168.031 179.844 168.031C180.359 168.031 180.799 167.896 181.164 167.625C181.529 167.354 181.818 166.922 182.031 166.328ZM177.414 164.055H182.047C181.984 163.357 181.807 162.833 181.516 162.484C181.068 161.943 180.487 161.672 179.773 161.672C179.128 161.672 178.583 161.888 178.141 162.32C177.703 162.753 177.461 163.331 177.414 164.055ZM185.297 160.703H187.484L189.664 167.344L192.086 160.703H194.109V169H192.703V162.32L190.25 169H188.992L186.672 162V169H185.297V160.703ZM201.672 167.977C201.151 168.419 200.648 168.732 200.164 168.914C199.685 169.096 199.169 169.188 198.617 169.188C197.706 169.188 197.005 168.966 196.516 168.523C196.026 168.076 195.781 167.505 195.781 166.812C195.781 166.406 195.872 166.036 196.055 165.703C196.242 165.365 196.484 165.094 196.781 164.891C197.083 164.688 197.422 164.534 197.797 164.43C198.073 164.357 198.49 164.286 199.047 164.219C200.182 164.083 201.018 163.922 201.555 163.734C201.56 163.542 201.562 163.419 201.562 163.367C201.562 162.794 201.43 162.391 201.164 162.156C200.805 161.839 200.271 161.68 199.562 161.68C198.901 161.68 198.411 161.797 198.094 162.031C197.781 162.26 197.549 162.669 197.398 163.258L196.023 163.07C196.148 162.482 196.354 162.008 196.641 161.648C196.927 161.284 197.341 161.005 197.883 160.812C198.424 160.615 199.052 160.516 199.766 160.516C200.474 160.516 201.049 160.599 201.492 160.766C201.935 160.932 202.26 161.143 202.469 161.398C202.677 161.648 202.823 161.966 202.906 162.352C202.953 162.591 202.977 163.023 202.977 163.648V165.523C202.977 166.831 203.005 167.659 203.062 168.008C203.125 168.352 203.245 168.682 203.422 169H201.953C201.807 168.708 201.714 168.367 201.672 167.977ZM201.555 164.836C201.044 165.044 200.279 165.221 199.258 165.367C198.68 165.451 198.271 165.544 198.031 165.648C197.792 165.753 197.607 165.906 197.477 166.109C197.346 166.307 197.281 166.529 197.281 166.773C197.281 167.148 197.422 167.461 197.703 167.711C197.99 167.961 198.406 168.086 198.953 168.086C199.495 168.086 199.977 167.969 200.398 167.734C200.82 167.495 201.13 167.169 201.328 166.758C201.479 166.44 201.555 165.971 201.555 165.352V164.836ZM0.53125 188.852C0.53125 187.315 0.958333 186.177 1.8125 185.438C2.52604 184.823 3.39583 184.516 4.42188 184.516C5.5625 184.516 6.49479 184.891 7.21875 185.641C7.94271 186.385 8.30469 187.417 8.30469 188.734C8.30469 189.802 8.14323 190.643 7.82031 191.258C7.5026 191.867 7.03646 192.341 6.42188 192.68C5.8125 193.018 5.14583 193.188 4.42188 193.188C3.26042 193.188 2.32031 192.815 1.60156 192.07C0.888021 191.326 0.53125 190.253 0.53125 188.852ZM1.97656 188.852C1.97656 189.914 2.20833 190.711 2.67188 191.242C3.13542 191.768 3.71875 192.031 4.42188 192.031C5.11979 192.031 5.70052 191.766 6.16406 191.234C6.6276 190.703 6.85938 189.893 6.85938 188.805C6.85938 187.779 6.625 187.003 6.15625 186.477C5.69271 185.945 5.11458 185.68 4.42188 185.68C3.71875 185.68 3.13542 185.943 2.67188 186.469C2.20833 186.995 1.97656 187.789 1.97656 188.852ZM16.0391 181.273L17.2812 181.289C17.224 181.846 17.099 182.234 16.9062 182.453C16.7188 182.672 16.474 182.812 16.1719 182.875C15.875 182.938 15.2891 182.969 14.4141 182.969C13.2526 182.969 12.4609 183.081 12.0391 183.305C11.6172 183.529 11.3125 183.888 11.125 184.383C10.9427 184.872 10.8411 185.505 10.8203 186.281C11.1745 185.755 11.5885 185.362 12.0625 185.102C12.5365 184.836 13.0703 184.703 13.6641 184.703C14.7526 184.703 15.6536 185.078 16.3672 185.828C17.0807 186.573 17.4375 187.583 17.4375 188.859C17.4375 189.828 17.2578 190.622 16.8984 191.242C16.5391 191.862 16.112 192.341 15.6172 192.68C15.1276 193.018 14.4583 193.188 13.6094 193.188C12.625 193.188 11.8594 192.964 11.3125 192.516C10.7656 192.062 10.3464 191.484 10.0547 190.781C9.76302 190.078 9.61719 188.854 9.61719 187.109C9.61719 184.917 9.98698 183.44 10.7266 182.68C11.4714 181.919 12.6146 181.539 14.1562 181.539C15.1146 181.539 15.6589 181.523 15.7891 181.492C15.9193 181.461 16.0026 181.388 16.0391 181.273ZM15.9688 188.82C15.9688 187.956 15.763 187.247 15.3516 186.695C14.9453 186.143 14.3698 185.867 13.625 185.867C12.849 185.867 12.25 186.159 11.8281 186.742C11.4062 187.326 11.1953 188.104 11.1953 189.078C11.1953 190.042 11.4271 190.779 11.8906 191.289C12.3594 191.799 12.9349 192.055 13.6172 192.055C14.3151 192.055 14.8802 191.76 15.3125 191.172C15.75 190.578 15.9688 189.794 15.9688 188.82ZM27.0312 184.703H28.4375V193H27.0312V184.703ZM19.1641 184.703H20.5703V187.945H22.3516C23.513 187.945 24.4062 188.172 25.0312 188.625C25.6615 189.073 25.9766 189.693 25.9766 190.484C25.9766 191.177 25.7135 191.771 25.1875 192.266C24.6667 192.755 23.8307 193 22.6797 193H19.1641V184.703ZM20.5703 191.844H22.0469C22.9375 191.844 23.5729 191.734 23.9531 191.516C24.3333 191.297 24.5234 190.956 24.5234 190.492C24.5234 190.133 24.3828 189.812 24.1016 189.531C23.8203 189.25 23.1979 189.109 22.2344 189.109H20.5703V191.844ZM30.1172 184.703H31.5234V186.273C31.5234 186.951 31.5625 187.443 31.6406 187.75C31.724 188.052 31.9193 188.318 32.2266 188.547C32.5339 188.771 32.9193 188.883 33.3828 188.883C33.9141 188.883 34.6016 188.742 35.4453 188.461V184.703H36.8516V193H35.4453V189.656C34.5807 189.927 33.7734 190.062 33.0234 190.062C32.3932 190.062 31.8359 189.904 31.3516 189.586C30.8724 189.263 30.5469 188.87 30.375 188.406C30.2031 187.943 30.1172 187.432 30.1172 186.875V184.703ZM38.9844 184.703H40.3906V188.156H44.2891V184.703H45.6953V193H44.2891V189.32H40.3906V193H38.9844V184.703ZM47.2969 188.852C47.2969 187.315 47.724 186.177 48.5781 185.438C49.2917 184.823 50.1615 184.516 51.1875 184.516C52.3281 184.516 53.2604 184.891 53.9844 185.641C54.7083 186.385 55.0703 187.417 55.0703 188.734C55.0703 189.802 54.9089 190.643 54.5859 191.258C54.2682 191.867 53.8021 192.341 53.1875 192.68C52.5781 193.018 51.9115 193.188 51.1875 193.188C50.026 193.188 49.0859 192.815 48.3672 192.07C47.6536 191.326 47.2969 190.253 47.2969 188.852ZM48.7422 188.852C48.7422 189.914 48.974 190.711 49.4375 191.242C49.901 191.768 50.4844 192.031 51.1875 192.031C51.8854 192.031 52.4661 191.766 52.9297 191.234C53.3932 190.703 53.625 189.893 53.625 188.805C53.625 187.779 53.3906 187.003 52.9219 186.477C52.4583 185.945 51.8802 185.68 51.1875 185.68C50.4844 185.68 49.901 185.943 49.4375 186.469C48.974 186.995 48.7422 187.789 48.7422 188.852ZM56.7266 184.703H58.1328V191.031L62.0312 184.703H63.5469V193H62.1406V186.711L58.2422 193H56.7266V184.703ZM61.6094 181.562H62.5703C62.4922 182.214 62.2526 182.714 61.8516 183.062C61.4557 183.411 60.9271 183.586 60.2656 183.586C59.599 183.586 59.0651 183.414 58.6641 183.07C58.2682 182.721 58.0312 182.219 57.9531 181.562H58.9141C58.987 181.917 59.1302 182.182 59.3438 182.359C59.5625 182.531 59.8542 182.617 60.2188 182.617C60.6406 182.617 60.9583 182.534 61.1719 182.367C61.3906 182.195 61.5365 181.927 61.6094 181.562ZM75.7969 190.328L77.25 190.508C77.0208 191.357 76.5964 192.016 75.9766 192.484C75.3568 192.953 74.5651 193.188 73.6016 193.188C72.388 193.188 71.4245 192.815 70.7109 192.07C70.0026 191.32 69.6484 190.271 69.6484 188.922C69.6484 187.526 70.0078 186.443 70.7266 185.672C71.4453 184.901 72.3776 184.516 73.5234 184.516C74.6328 184.516 75.5391 184.893 76.2422 185.648C76.9453 186.404 77.2969 187.466 77.2969 188.836C77.2969 188.919 77.2943 189.044 77.2891 189.211H71.1016C71.1536 190.122 71.4115 190.82 71.875 191.305C72.3385 191.789 72.9167 192.031 73.6094 192.031C74.125 192.031 74.5651 191.896 74.9297 191.625C75.2943 191.354 75.5833 190.922 75.7969 190.328ZM71.1797 188.055H75.8125C75.75 187.357 75.5729 186.833 75.2812 186.484C74.8333 185.943 74.2526 185.672 73.5391 185.672C72.8932 185.672 72.349 185.888 71.9062 186.32C71.4688 186.753 71.2266 187.331 71.1797 188.055ZM79.7734 184.703H85.5547V191.844H86.4531V195.352H85.2969V193H78.7656V195.352H77.6094V191.844H78.3516C79.3411 190.5 79.8151 188.12 79.7734 184.703ZM80.9453 185.867C80.8411 188.56 80.4245 190.552 79.6953 191.844H84.1562V185.867H80.9453ZM95.9062 184.703H97.3125V193H95.9062V184.703ZM88.0391 184.703H89.4453V187.945H91.2266C92.388 187.945 93.2812 188.172 93.9062 188.625C94.5365 189.073 94.8516 189.693 94.8516 190.484C94.8516 191.177 94.5885 191.771 94.0625 192.266C93.5417 192.755 92.7057 193 91.5547 193H88.0391V184.703ZM89.4453 191.844H90.9219C91.8125 191.844 92.4479 191.734 92.8281 191.516C93.2083 191.297 93.3984 190.956 93.3984 190.492C93.3984 190.133 93.2578 189.812 92.9766 189.531C92.6953 189.25 92.0729 189.109 91.1094 189.109H89.4453V191.844ZM103.969 184.703H105.375V188.156H109.273V184.703H110.68V193H109.273V189.32H105.375V193H103.969V184.703ZM118.219 191.977C117.698 192.419 117.195 192.732 116.711 192.914C116.232 193.096 115.716 193.188 115.164 193.188C114.253 193.188 113.552 192.966 113.062 192.523C112.573 192.076 112.328 191.505 112.328 190.812C112.328 190.406 112.419 190.036 112.602 189.703C112.789 189.365 113.031 189.094 113.328 188.891C113.63 188.688 113.969 188.534 114.344 188.43C114.62 188.357 115.036 188.286 115.594 188.219C116.729 188.083 117.565 187.922 118.102 187.734C118.107 187.542 118.109 187.419 118.109 187.367C118.109 186.794 117.977 186.391 117.711 186.156C117.352 185.839 116.818 185.68 116.109 185.68C115.448 185.68 114.958 185.797 114.641 186.031C114.328 186.26 114.096 186.669 113.945 187.258L112.57 187.07C112.695 186.482 112.901 186.008 113.188 185.648C113.474 185.284 113.888 185.005 114.43 184.812C114.971 184.615 115.599 184.516 116.312 184.516C117.021 184.516 117.596 184.599 118.039 184.766C118.482 184.932 118.807 185.143 119.016 185.398C119.224 185.648 119.37 185.966 119.453 186.352C119.5 186.591 119.523 187.023 119.523 187.648V189.523C119.523 190.831 119.552 191.659 119.609 192.008C119.672 192.352 119.792 192.682 119.969 193H118.5C118.354 192.708 118.26 192.367 118.219 191.977ZM118.102 188.836C117.591 189.044 116.826 189.221 115.805 189.367C115.227 189.451 114.818 189.544 114.578 189.648C114.339 189.753 114.154 189.906 114.023 190.109C113.893 190.307 113.828 190.529 113.828 190.773C113.828 191.148 113.969 191.461 114.25 191.711C114.536 191.961 114.953 192.086 115.5 192.086C116.042 192.086 116.523 191.969 116.945 191.734C117.367 191.495 117.677 191.169 117.875 190.758C118.026 190.44 118.102 189.971 118.102 189.352V188.836ZM126.172 184.703H127.578V188.156H131.477V184.703H132.883V193H131.477V189.32H127.578V193H126.172V184.703ZM140.422 191.977C139.901 192.419 139.398 192.732 138.914 192.914C138.435 193.096 137.919 193.188 137.367 193.188C136.456 193.188 135.755 192.966 135.266 192.523C134.776 192.076 134.531 191.505 134.531 190.812C134.531 190.406 134.622 190.036 134.805 189.703C134.992 189.365 135.234 189.094 135.531 188.891C135.833 188.688 136.172 188.534 136.547 188.43C136.823 188.357 137.24 188.286 137.797 188.219C138.932 188.083 139.768 187.922 140.305 187.734C140.31 187.542 140.312 187.419 140.312 187.367C140.312 186.794 140.18 186.391 139.914 186.156C139.555 185.839 139.021 185.68 138.312 185.68C137.651 185.68 137.161 185.797 136.844 186.031C136.531 186.26 136.299 186.669 136.148 187.258L134.773 187.07C134.898 186.482 135.104 186.008 135.391 185.648C135.677 185.284 136.091 185.005 136.633 184.812C137.174 184.615 137.802 184.516 138.516 184.516C139.224 184.516 139.799 184.599 140.242 184.766C140.685 184.932 141.01 185.143 141.219 185.398C141.427 185.648 141.573 185.966 141.656 186.352C141.703 186.591 141.727 187.023 141.727 187.648V189.523C141.727 190.831 141.755 191.659 141.812 192.008C141.875 192.352 141.995 192.682 142.172 193H140.703C140.557 192.708 140.464 192.367 140.422 191.977ZM140.305 188.836C139.794 189.044 139.029 189.221 138.008 189.367C137.43 189.451 137.021 189.544 136.781 189.648C136.542 189.753 136.357 189.906 136.227 190.109C136.096 190.307 136.031 190.529 136.031 190.773C136.031 191.148 136.172 191.461 136.453 191.711C136.74 191.961 137.156 192.086 137.703 192.086C138.245 192.086 138.727 191.969 139.148 191.734C139.57 191.495 139.88 191.169 140.078 190.758C140.229 190.44 140.305 189.971 140.305 189.352V188.836ZM143.961 184.703H145.367V191.836H148.57V184.703H149.977V191.836H153.188V184.703H154.586V193H143.961V184.703ZM162.438 190.328L163.891 190.508C163.661 191.357 163.237 192.016 162.617 192.484C161.997 192.953 161.206 193.188 160.242 193.188C159.029 193.188 158.065 192.815 157.352 192.07C156.643 191.32 156.289 190.271 156.289 188.922C156.289 187.526 156.648 186.443 157.367 185.672C158.086 184.901 159.018 184.516 160.164 184.516C161.273 184.516 162.18 184.893 162.883 185.648C163.586 186.404 163.938 187.466 163.938 188.836C163.938 188.919 163.935 189.044 163.93 189.211H157.742C157.794 190.122 158.052 190.82 158.516 191.305C158.979 191.789 159.557 192.031 160.25 192.031C160.766 192.031 161.206 191.896 161.57 191.625C161.935 191.354 162.224 190.922 162.438 190.328ZM157.82 188.055H162.453C162.391 187.357 162.214 186.833 161.922 186.484C161.474 185.943 160.893 185.672 160.18 185.672C159.534 185.672 158.99 185.888 158.547 186.32C158.109 186.753 157.867 187.331 157.82 188.055ZM5.88281 205.547H7.28906V209.508C7.58073 209.174 7.90104 208.927 8.25 208.766C8.59896 208.599 8.97396 208.516 9.375 208.516C10.3594 208.516 11.138 208.927 11.7109 209.75C12.2891 210.568 12.5781 211.599 12.5781 212.844C12.5781 214.141 12.2682 215.19 11.6484 215.992C11.0286 216.789 10.2578 217.188 9.33594 217.188C9.03385 217.188 8.72656 217.141 8.41406 217.047C8.10156 216.953 7.72656 216.698 7.28906 216.281V220.18H5.88281V216.281C5.60156 216.583 5.28906 216.81 4.94531 216.961C4.60677 217.112 4.23958 217.188 3.84375 217.188C2.97396 217.188 2.21354 216.807 1.5625 216.047C0.911458 215.281 0.585938 214.188 0.585938 212.766C0.585938 211.562 0.880208 210.555 1.46875 209.742C2.05729 208.924 2.84896 208.516 3.84375 208.516C4.26042 208.516 4.63802 208.599 4.97656 208.766C5.3151 208.927 5.61719 209.174 5.88281 209.508V205.547ZM7.28125 212.883C7.28125 214.133 7.45312 214.974 7.79688 215.406C8.14062 215.833 8.57031 216.047 9.08594 216.047C9.65885 216.047 10.1458 215.784 10.5469 215.258C10.9531 214.727 11.1562 213.904 11.1562 212.789C11.1562 211.737 10.9688 210.953 10.5938 210.438C10.224 209.922 9.7474 209.664 9.16406 209.664C8.53906 209.664 8.06771 209.932 7.75 210.469C7.4375 211.005 7.28125 211.81 7.28125 212.883ZM2.01562 212.727C2.01562 213.898 2.21094 214.742 2.60156 215.258C2.9974 215.773 3.48698 216.031 4.07031 216.031C4.67969 216.031 5.13542 215.776 5.4375 215.266C5.73958 214.75 5.89062 213.979 5.89062 212.953C5.89062 211.859 5.73177 211.039 5.41406 210.492C5.09635 209.945 4.61719 209.672 3.97656 209.672C3.39844 209.672 2.92708 209.94 2.5625 210.477C2.19792 211.008 2.01562 211.758 2.01562 212.727ZM13.9766 220.195L13.8203 218.875C14.1276 218.958 14.3958 219 14.625 219C14.9375 219 15.1875 218.948 15.375 218.844C15.5625 218.74 15.7161 218.594 15.8359 218.406C15.9245 218.266 16.0677 217.917 16.2656 217.359C16.2917 217.281 16.3333 217.167 16.3906 217.016L13.2422 208.703H14.7578L16.4844 213.508C16.7083 214.117 16.9089 214.758 17.0859 215.43C17.2474 214.784 17.4401 214.154 17.6641 213.539L19.4375 208.703H20.8438L17.6875 217.141C17.349 218.052 17.0859 218.68 16.8984 219.023C16.6484 219.487 16.362 219.826 16.0391 220.039C15.7161 220.258 15.3307 220.367 14.8828 220.367C14.612 220.367 14.3099 220.31 13.9766 220.195ZM22.0469 208.703H23.4531V212.156H27.3516V208.703H28.7578V217H27.3516V213.32H23.4531V217H22.0469V208.703ZM30.875 208.703H32.2812V212.289C32.7292 212.289 33.0417 212.203 33.2188 212.031C33.401 211.859 33.6667 211.359 34.0156 210.531C34.2917 209.875 34.5156 209.443 34.6875 209.234C34.8594 209.026 35.0573 208.885 35.2812 208.812C35.5052 208.74 35.8646 208.703 36.3594 208.703H36.6406V209.867L36.25 209.859C35.8802 209.859 35.6432 209.914 35.5391 210.023C35.4297 210.138 35.263 210.479 35.0391 211.047C34.8255 211.589 34.6302 211.964 34.4531 212.172C34.276 212.38 34.0026 212.57 33.6328 212.742C34.237 212.904 34.8307 213.466 35.4141 214.43L36.9531 217H35.4062L33.9062 214.43C33.599 213.914 33.3307 213.576 33.1016 213.414C32.8724 213.247 32.599 213.164 32.2812 213.164V217H30.875V208.703ZM37.9062 208.703H39.3125V215.844H43.2031V208.703H44.6094V215.844H45.5156V219.352H44.3594V217H37.9062V208.703ZM47.0547 208.703H48.4609V215.031L52.3594 208.703H53.875V217H52.4688V210.711L48.5703 217H47.0547V208.703ZM55.4688 212.852C55.4688 211.315 55.8958 210.177 56.75 209.438C57.4635 208.823 58.3333 208.516 59.3594 208.516C60.5 208.516 61.4323 208.891 62.1562 209.641C62.8802 210.385 63.2422 211.417 63.2422 212.734C63.2422 213.802 63.0807 214.643 62.7578 215.258C62.4401 215.867 61.974 216.341 61.3594 216.68C60.75 217.018 60.0833 217.188 59.3594 217.188C58.1979 217.188 57.2578 216.815 56.5391 216.07C55.8255 215.326 55.4688 214.253 55.4688 212.852ZM56.9141 212.852C56.9141 213.914 57.1458 214.711 57.6094 215.242C58.0729 215.768 58.6562 216.031 59.3594 216.031C60.0573 216.031 60.638 215.766 61.1016 215.234C61.5651 214.703 61.7969 213.893 61.7969 212.805C61.7969 211.779 61.5625 211.003 61.0938 210.477C60.6302 209.945 60.0521 209.68 59.3594 209.68C58.6562 209.68 58.0729 209.943 57.6094 210.469C57.1458 210.995 56.9141 211.789 56.9141 212.852ZM64.9062 208.703H66.3125V212.156H70.2109V208.703H71.6172V217H70.2109V213.32H66.3125V217H64.9062V208.703ZM79.1562 215.977C78.6354 216.419 78.1328 216.732 77.6484 216.914C77.1693 217.096 76.6536 217.188 76.1016 217.188C75.1901 217.188 74.4896 216.966 74 216.523C73.5104 216.076 73.2656 215.505 73.2656 214.812C73.2656 214.406 73.3568 214.036 73.5391 213.703C73.7266 213.365 73.9688 213.094 74.2656 212.891C74.5677 212.688 74.9062 212.534 75.2812 212.43C75.5573 212.357 75.974 212.286 76.5312 212.219C77.6667 212.083 78.5026 211.922 79.0391 211.734C79.0443 211.542 79.0469 211.419 79.0469 211.367C79.0469 210.794 78.9141 210.391 78.6484 210.156C78.2891 209.839 77.7552 209.68 77.0469 209.68C76.3854 209.68 75.8958 209.797 75.5781 210.031C75.2656 210.26 75.0339 210.669 74.8828 211.258L73.5078 211.07C73.6328 210.482 73.8385 210.008 74.125 209.648C74.4115 209.284 74.8255 209.005 75.3672 208.812C75.9089 208.615 76.5365 208.516 77.25 208.516C77.9583 208.516 78.5339 208.599 78.9766 208.766C79.4193 208.932 79.7448 209.143 79.9531 209.398C80.1615 209.648 80.3073 209.966 80.3906 210.352C80.4375 210.591 80.4609 211.023 80.4609 211.648V213.523C80.4609 214.831 80.4896 215.659 80.5469 216.008C80.6094 216.352 80.7292 216.682 80.9062 217H79.4375C79.2917 216.708 79.1979 216.367 79.1562 215.977ZM79.0391 212.836C78.5286 213.044 77.763 213.221 76.7422 213.367C76.1641 213.451 75.7552 213.544 75.5156 213.648C75.276 213.753 75.0911 213.906 74.9609 214.109C74.8307 214.307 74.7656 214.529 74.7656 214.773C74.7656 215.148 74.9062 215.461 75.1875 215.711C75.474 215.961 75.8906 216.086 76.4375 216.086C76.9792 216.086 77.4609 215.969 77.8828 215.734C78.3047 215.495 78.6146 215.169 78.8125 214.758C78.9635 214.44 79.0391 213.971 79.0391 213.352V212.836ZM83.3359 208.703H89.8672V217H88.4688V209.867H84.7422V214C84.7422 214.964 84.7109 215.599 84.6484 215.906C84.5859 216.214 84.4141 216.482 84.1328 216.711C83.8516 216.94 83.4453 217.055 82.9141 217.055C82.5859 217.055 82.2083 217.034 81.7812 216.992V215.82H82.3984C82.6901 215.82 82.8984 215.792 83.0234 215.734C83.1484 215.672 83.2318 215.576 83.2734 215.445C83.3151 215.315 83.3359 214.891 83.3359 214.172V208.703ZM91.9688 208.703H93.375V211.945H95.1562C96.3177 211.945 97.2109 212.172 97.8359 212.625C98.4661 213.073 98.7812 213.693 98.7812 214.484C98.7812 215.177 98.5182 215.771 97.9922 216.266C97.4714 216.755 96.6354 217 95.4844 217H91.9688V208.703ZM93.375 215.844H94.8516C95.7422 215.844 96.3776 215.734 96.7578 215.516C97.138 215.297 97.3281 214.956 97.3281 214.492C97.3281 214.133 97.1875 213.812 96.9062 213.531C96.625 213.25 96.0026 213.109 95.0391 213.109H93.375V215.844ZM100.344 208.703H101.75V212.156H105.648V208.703H107.055V217H105.648V213.32H101.75V217H100.344V208.703ZM108.656 212.852C108.656 211.315 109.083 210.177 109.938 209.438C110.651 208.823 111.521 208.516 112.547 208.516C113.688 208.516 114.62 208.891 115.344 209.641C116.068 210.385 116.43 211.417 116.43 212.734C116.43 213.802 116.268 214.643 115.945 215.258C115.628 215.867 115.161 216.341 114.547 216.68C113.938 217.018 113.271 217.188 112.547 217.188C111.385 217.188 110.445 216.815 109.727 216.07C109.013 215.326 108.656 214.253 108.656 212.852ZM110.102 212.852C110.102 213.914 110.333 214.711 110.797 215.242C111.26 215.768 111.844 216.031 112.547 216.031C113.245 216.031 113.826 215.766 114.289 215.234C114.753 214.703 114.984 213.893 114.984 212.805C114.984 211.779 114.75 211.003 114.281 210.477C113.818 209.945 113.24 209.68 112.547 209.68C111.844 209.68 111.26 209.943 110.797 210.469C110.333 210.995 110.102 211.789 110.102 212.852ZM123.766 214.328L125.219 214.508C124.99 215.357 124.565 216.016 123.945 216.484C123.326 216.953 122.534 217.188 121.57 217.188C120.357 217.188 119.393 216.815 118.68 216.07C117.971 215.32 117.617 214.271 117.617 212.922C117.617 211.526 117.977 210.443 118.695 209.672C119.414 208.901 120.346 208.516 121.492 208.516C122.602 208.516 123.508 208.893 124.211 209.648C124.914 210.404 125.266 211.466 125.266 212.836C125.266 212.919 125.263 213.044 125.258 213.211H119.07C119.122 214.122 119.38 214.82 119.844 215.305C120.307 215.789 120.885 216.031 121.578 216.031C122.094 216.031 122.534 215.896 122.898 215.625C123.263 215.354 123.552 214.922 123.766 214.328ZM119.148 212.055H123.781C123.719 211.357 123.542 210.833 123.25 210.484C122.802 209.943 122.221 209.672 121.508 209.672C120.862 209.672 120.318 209.888 119.875 210.32C119.438 210.753 119.195 211.331 119.148 212.055ZM131.453 208.703H138V217H136.594V209.867H132.859V217H131.453V208.703ZM140.117 208.703H141.523V215.031L145.422 208.703H146.938V217H145.531V210.711L141.633 217H140.117V208.703ZM148.297 208.703H155.039V209.867H152.367V217H150.969V209.867H148.297V208.703ZM161.609 215.977C161.089 216.419 160.586 216.732 160.102 216.914C159.622 217.096 159.107 217.188 158.555 217.188C157.643 217.188 156.943 216.966 156.453 216.523C155.964 216.076 155.719 215.505 155.719 214.812C155.719 214.406 155.81 214.036 155.992 213.703C156.18 213.365 156.422 213.094 156.719 212.891C157.021 212.688 157.359 212.534 157.734 212.43C158.01 212.357 158.427 212.286 158.984 212.219C160.12 212.083 160.956 211.922 161.492 211.734C161.497 211.542 161.5 211.419 161.5 211.367C161.5 210.794 161.367 210.391 161.102 210.156C160.742 209.839 160.208 209.68 159.5 209.68C158.839 209.68 158.349 209.797 158.031 210.031C157.719 210.26 157.487 210.669 157.336 211.258L155.961 211.07C156.086 210.482 156.292 210.008 156.578 209.648C156.865 209.284 157.279 209.005 157.82 208.812C158.362 208.615 158.99 208.516 159.703 208.516C160.411 208.516 160.987 208.599 161.43 208.766C161.872 208.932 162.198 209.143 162.406 209.398C162.615 209.648 162.76 209.966 162.844 210.352C162.891 210.591 162.914 211.023 162.914 211.648V213.523C162.914 214.831 162.943 215.659 163 216.008C163.062 216.352 163.182 216.682 163.359 217H161.891C161.745 216.708 161.651 216.367 161.609 215.977ZM161.492 212.836C160.982 213.044 160.216 213.221 159.195 213.367C158.617 213.451 158.208 213.544 157.969 213.648C157.729 213.753 157.544 213.906 157.414 214.109C157.284 214.307 157.219 214.529 157.219 214.773C157.219 215.148 157.359 215.461 157.641 215.711C157.927 215.961 158.344 216.086 158.891 216.086C159.432 216.086 159.914 215.969 160.336 215.734C160.758 215.495 161.068 215.169 161.266 214.758C161.417 214.44 161.492 213.971 161.492 213.352V212.836ZM165.109 208.703H166.516V212.156H170.414V208.703H171.82V217H170.414V213.32H166.516V217H165.109V208.703ZM173.945 208.703H175.352V215.031L179.25 208.703H180.766V217H179.359V210.711L175.461 217H173.945V208.703ZM188.562 214.328L190.016 214.508C189.786 215.357 189.362 216.016 188.742 216.484C188.122 216.953 187.331 217.188 186.367 217.188C185.154 217.188 184.19 216.815 183.477 216.07C182.768 215.32 182.414 214.271 182.414 212.922C182.414 211.526 182.773 210.443 183.492 209.672C184.211 208.901 185.143 208.516 186.289 208.516C187.398 208.516 188.305 208.893 189.008 209.648C189.711 210.404 190.062 211.466 190.062 212.836C190.062 212.919 190.06 213.044 190.055 213.211H183.867C183.919 214.122 184.177 214.82 184.641 215.305C185.104 215.789 185.682 216.031 186.375 216.031C186.891 216.031 187.331 215.896 187.695 215.625C188.06 215.354 188.349 214.922 188.562 214.328ZM183.945 212.055H188.578C188.516 211.357 188.339 210.833 188.047 210.484C187.599 209.943 187.018 209.672 186.305 209.672C185.659 209.672 185.115 209.888 184.672 210.32C184.234 210.753 183.992 211.331 183.945 212.055ZM192.188 217V215.398H193.789V217H192.188Z" fill="#444444"/>
</svg>
