<svg width="250" height="280" viewBox="0 0 250 280" fill="none" xmlns="http://www.w3.org/2000/svg">
<path d="M191.324 267V206.24H125.524V174.88L184.604 40.2H219.884V179.64H245.364V206.24H219.884V267H191.324ZM154.364 179.64H191.324V76.6L154.364 179.64Z" fill="#F2F2F2"/>
<rect x="1" y="40" width="80" height="80" fill="#68B738"/>
<ellipse cx="46.2042" cy="74.3299" rx="1.0873" ry="1.08512" fill="white"/>
<ellipse cx="35.3312" cy="74.3299" rx="1.08731" ry="1.08512" fill="white"/>
<ellipse cx="35.3312" cy="87.3512" rx="1.08731" ry="1.08512" fill="white"/>
<ellipse cx="40.7677" cy="89.5215" rx="1.0873" ry="1.08512" fill="white"/>
<ellipse cx="32.0692" cy="80.7748" rx="1.08731" ry="1.08512" fill="white"/>
<ellipse cx="49.466" cy="80.7748" rx="1.0873" ry="1.08512" fill="white"/>
<ellipse cx="46.2042" cy="87.3512" rx="1.0873" ry="1.08512" fill="white"/>
<mask id="path-10-inside-1_2403_569" fill="white">
<path fill-rule="evenodd" clip-rule="evenodd" d="M45.9215 92.0581C46.3298 91.8622 46.8226 91.9298 47.1385 92.2542L48.9644 94.1292C49.2319 94.4039 49.6734 94.4039 49.941 94.1292C50.1987 93.8645 50.1987 93.4427 49.941 93.1781L48.5843 91.7849C48.1584 91.3475 48.2228 90.6356 48.682 90.2333C51.3238 87.9195 53 84.4688 53 80.6145C53 73.6477 47.5235 68 40.7678 68C34.0122 68 28.5356 73.6477 28.5356 80.6145C28.5356 84.4288 30.1773 87.8477 32.7717 90.1608C33.2244 90.5644 33.2849 91.2708 32.8617 91.7054L31.4276 93.1781C31.1698 93.4427 31.1698 93.8645 31.4276 94.1291C31.6951 94.4039 32.1366 94.4039 32.4042 94.1292L34.2838 92.199C34.6025 91.8718 35.1004 91.8061 35.5102 92.0076C37.103 92.7907 38.8858 93.229 40.7678 93.229C42.609 93.229 44.3553 92.8095 45.9215 92.0581ZM40.7678 91.8274C46.7728 91.8274 51.6409 86.8072 51.6409 80.6145C51.6409 74.4218 46.7728 69.4016 40.7678 69.4016C34.7628 69.4016 29.8948 74.4218 29.8948 80.6145C29.8948 86.8072 34.7628 91.8274 40.7678 91.8274ZM40.0083 80.298V76.5001V72.9409C40.0083 72.5094 40.3581 72.1596 40.7895 72.1596C41.221 72.1596 41.5708 72.5094 41.5708 72.9409V76.5001V80.298V80.8406V81.1226C41.5708 81.5661 41.2113 81.9257 40.7677 81.9257C40.3483 81.9257 40.0083 81.5857 40.0083 81.1663V80.8406V80.298Z"/>
</mask>
<path fill-rule="evenodd" clip-rule="evenodd" d="M45.9215 92.0581C46.3298 91.8622 46.8226 91.9298 47.1385 92.2542L48.9644 94.1292C49.2319 94.4039 49.6734 94.4039 49.941 94.1292C50.1987 93.8645 50.1987 93.4427 49.941 93.1781L48.5843 91.7849C48.1584 91.3475 48.2228 90.6356 48.682 90.2333C51.3238 87.9195 53 84.4688 53 80.6145C53 73.6477 47.5235 68 40.7678 68C34.0122 68 28.5356 73.6477 28.5356 80.6145C28.5356 84.4288 30.1773 87.8477 32.7717 90.1608C33.2244 90.5644 33.2849 91.2708 32.8617 91.7054L31.4276 93.1781C31.1698 93.4427 31.1698 93.8645 31.4276 94.1291C31.6951 94.4039 32.1366 94.4039 32.4042 94.1292L34.2838 92.199C34.6025 91.8718 35.1004 91.8061 35.5102 92.0076C37.103 92.7907 38.8858 93.229 40.7678 93.229C42.609 93.229 44.3553 92.8095 45.9215 92.0581ZM40.7678 91.8274C46.7728 91.8274 51.6409 86.8072 51.6409 80.6145C51.6409 74.4218 46.7728 69.4016 40.7678 69.4016C34.7628 69.4016 29.8948 74.4218 29.8948 80.6145C29.8948 86.8072 34.7628 91.8274 40.7678 91.8274ZM40.0083 80.298V76.5001V72.9409C40.0083 72.5094 40.3581 72.1596 40.7895 72.1596C41.221 72.1596 41.5708 72.5094 41.5708 72.9409V76.5001V80.298V80.8406V81.1226C41.5708 81.5661 41.2113 81.9257 40.7677 81.9257C40.3483 81.9257 40.0083 81.5857 40.0083 81.1663V80.8406V80.298Z" fill="white"/>
<path d="M34.2838 92.199L37.1495 94.9896L34.2838 92.199ZM35.5102 92.0076L37.275 88.418L35.5102 92.0076ZM32.4042 94.1292L29.5385 91.3385L32.4042 94.1292ZM31.4276 93.1781L28.5619 90.3874L31.4276 93.1781ZM48.5843 91.7849L45.7186 94.5756L48.5843 91.7849ZM48.682 90.2333L46.0465 87.2243L48.682 90.2333ZM32.7717 90.1608L30.1097 93.1464L32.7717 90.1608ZM32.8617 91.7054L29.9961 88.9147L32.8617 91.7054ZM49.941 93.1781L52.8067 90.3874L49.941 93.1781ZM48.9644 94.1292L46.0987 96.9198L48.9644 94.1292ZM47.1385 92.2542L50.0042 89.4636L47.1385 92.2542ZM45.9215 92.0581L44.1913 88.4516L45.9215 92.0581ZM44.2728 95.0449L46.0987 96.9198L51.8301 91.3385L50.0042 89.4636L44.2728 95.0449ZM52.8067 90.3874L51.45 88.9942L45.7186 94.5756L47.0753 95.9688L52.8067 90.3874ZM51.3175 93.2423C54.8075 90.1855 57 85.6466 57 80.6145H49C49 83.2911 47.8401 85.6534 46.0465 87.2243L51.3175 93.2423ZM57 80.6145C57 71.5555 49.8478 64 40.7678 64V72C45.1992 72 49 75.7399 49 80.6145H57ZM40.7678 64C31.6879 64 24.5356 71.5555 24.5356 80.6145H32.5356C32.5356 75.7399 36.3365 72 40.7678 72V64ZM24.5356 80.6145C24.5356 85.5943 26.683 90.0912 30.1097 93.1464L35.4336 87.1752C33.6716 85.6042 32.5356 83.2633 32.5356 80.6145H24.5356ZM29.9961 88.9147L28.5619 90.3874L34.2932 95.9687L35.7274 94.496L29.9961 88.9147ZM35.2699 96.9198L37.1495 94.9896L31.4181 89.4083L29.5385 91.3385L35.2699 96.9198ZM33.7454 95.5972C35.8722 96.6429 38.2573 97.229 40.7678 97.229V89.229C39.5143 89.229 38.3337 88.9385 37.275 88.418L33.7454 95.5972ZM40.7678 97.229C43.2236 97.229 45.5598 96.6681 47.6517 95.6645L44.1913 88.4516C43.1508 88.9508 41.9944 89.229 40.7678 89.229V97.229ZM40.7678 95.8274C49.0971 95.8274 55.6409 88.8994 55.6409 80.6145H47.6409C47.6409 84.715 44.4485 87.8274 40.7678 87.8274V95.8274ZM55.6409 80.6145C55.6409 72.3296 49.0971 65.4016 40.7678 65.4016V73.4016C44.4485 73.4016 47.6409 76.514 47.6409 80.6145H55.6409ZM40.7678 65.4016C32.4385 65.4016 25.8948 72.3296 25.8948 80.6145H33.8948C33.8948 76.514 37.0871 73.4016 40.7678 73.4016V65.4016ZM25.8948 80.6145C25.8948 88.8994 32.4385 95.8274 40.7678 95.8274V87.8274C37.0871 87.8274 33.8948 84.715 33.8948 80.6145H25.8948ZM37.5708 80.298V80.8406H45.5708V80.298H37.5708ZM37.5708 80.8406V81.1226H45.5708V80.8406H37.5708ZM44.0083 81.1663V80.8406H36.0083V81.1663H44.0083ZM44.0083 80.8406V80.298H36.0083V80.8406H44.0083ZM44.0083 80.298V76.5001H36.0083V80.298H44.0083ZM44.0083 76.5001V72.9409H36.0083V76.5001H44.0083ZM37.5708 72.9409V76.5001H45.5708V72.9409H37.5708ZM37.5708 76.5001V80.298H45.5708V76.5001H37.5708ZM40.7895 68.1596C38.1489 68.1596 36.0083 70.3003 36.0083 72.9409H44.0083C44.0083 74.7186 42.5672 76.1596 40.7895 76.1596V68.1596ZM37.5708 81.1226C37.5708 79.357 39.0021 77.9257 40.7677 77.9257V85.9257C43.4204 85.9257 45.5708 83.7753 45.5708 81.1226H37.5708ZM37.1495 94.9896C36.1569 96.009 34.7521 96.0922 33.7454 95.5972L37.275 88.418C35.4487 87.52 33.048 87.7346 31.4181 89.4083L37.1495 94.9896ZM28.5619 96.9198C30.3997 98.807 33.4321 98.807 35.2699 96.9198L29.5385 91.3385C30.8412 90.0008 32.9906 90.0008 34.2933 91.3385L28.5619 96.9198ZM28.5619 90.3874C26.7917 92.2051 26.7917 95.1021 28.5619 96.9198L34.2933 91.3385C35.548 92.6269 35.5479 94.6803 34.2932 95.9687L28.5619 90.3874ZM51.45 88.9942C52.7927 90.3731 52.394 92.2994 51.3175 93.2423L46.0465 87.2243C44.0515 88.9717 43.524 92.3219 45.7186 94.5756L51.45 88.9942ZM40.7895 76.1596C39.0119 76.1596 37.5708 74.7186 37.5708 72.9409H45.5708C45.5708 70.3003 43.4302 68.1596 40.7895 68.1596V76.1596ZM30.1097 93.1464C29.0463 92.1983 28.6626 90.2839 29.9961 88.9147L35.7274 94.496C37.9071 92.2577 37.4025 88.9306 35.4336 87.1752L30.1097 93.1464ZM52.8067 96.9198C54.5768 95.1021 54.5768 92.2051 52.8067 90.3874L47.0753 95.9688C45.8206 94.6803 45.8206 92.6269 47.0753 91.3385L52.8067 96.9198ZM46.0987 96.9198C47.9365 98.807 50.9689 98.807 52.8067 96.9198L47.0753 91.3385C48.378 90.0008 50.5274 90.0008 51.8301 91.3385L46.0987 96.9198ZM40.7677 77.9257C42.5574 77.9257 44.0083 79.3765 44.0083 81.1663H36.0083C36.0083 83.7948 38.1391 85.9257 40.7677 85.9257V77.9257ZM50.0042 89.4636C48.3881 87.804 46.0117 87.5783 44.1913 88.4516L47.6517 95.6645C46.648 96.1461 45.257 96.0555 44.2728 95.0449L50.0042 89.4636Z" fill="white" mask="url(#path-10-inside-1_2403_569)"/>
<rect x="40" y="69" width="4" height="1.5" transform="rotate(-90 40 69)" fill="white"/>
<rect x="33" y="65" width="15.5" height="1.5" rx="0.75" fill="white"/>
<path d="M0.078125 157.547H1.60938L5.34375 164.562L8.60938 157.547H10.1172L5.82031 166.453C5.28385 167.568 4.84375 168.297 4.5 168.641C4.15625 168.984 3.66406 169.156 3.02344 169.156C2.63281 169.156 2.15365 169.065 1.58594 168.883V167.586C1.99219 167.82 2.42188 167.938 2.875 167.938C3.24479 167.938 3.5625 167.82 3.82812 167.586C4.09896 167.346 4.39583 166.805 4.71875 165.961L0.078125 157.547ZM15.7109 160.703V164.289C16.1589 164.289 16.474 164.203 16.6562 164.031C16.8385 163.859 17.1042 163.359 17.4531 162.531C17.7812 161.745 18.0755 161.242 18.3359 161.023C18.5911 160.81 18.9974 160.703 19.5547 160.703H20.0703V161.867L19.6875 161.859C19.3125 161.859 19.0729 161.914 18.9688 162.023C18.8594 162.138 18.6927 162.479 18.4688 163.047C18.2604 163.589 18.0677 163.964 17.8906 164.172C17.7135 164.38 17.4375 164.57 17.0625 164.742C17.6719 164.904 18.2656 165.466 18.8438 166.43L20.3906 169H18.8438L17.3359 166.43C17.0286 165.909 16.7604 165.568 16.5312 165.406C16.3021 165.245 16.0286 165.164 15.7109 165.164V169H14.2734V165.164C13.9609 165.164 13.6901 165.245 13.4609 165.406C13.2318 165.562 12.9635 165.904 12.6562 166.43L11.1484 169H9.60156L11.1406 166.43C11.724 165.466 12.3203 164.904 12.9297 164.742C12.513 164.549 12.2214 164.341 12.0547 164.117C11.888 163.888 11.638 163.346 11.3047 162.492C11.1901 162.206 11.0677 162.029 10.9375 161.961C10.8021 161.893 10.6016 161.859 10.3359 161.859C10.2682 161.859 10.1302 161.862 9.92188 161.867V160.703H10.1172C10.6589 160.703 11.0391 160.737 11.2578 160.805C11.4818 160.867 11.6797 161.005 11.8516 161.219C12.0286 161.427 12.2578 161.865 12.5391 162.531C12.8828 163.349 13.1432 163.846 13.3203 164.023C13.5026 164.201 13.8203 164.289 14.2734 164.289V160.703H15.7109ZM27.0781 166.328L28.5312 166.508C28.3021 167.357 27.8776 168.016 27.2578 168.484C26.638 168.953 25.8464 169.188 24.8828 169.188C23.6693 169.188 22.7057 168.815 21.9922 168.07C21.2839 167.32 20.9297 166.271 20.9297 164.922C20.9297 163.526 21.2891 162.443 22.0078 161.672C22.7266 160.901 23.6589 160.516 24.8047 160.516C25.9141 160.516 26.8203 160.893 27.5234 161.648C28.2266 162.404 28.5781 163.466 28.5781 164.836C28.5781 164.919 28.5755 165.044 28.5703 165.211H22.3828C22.4349 166.122 22.6927 166.82 23.1562 167.305C23.6198 167.789 24.1979 168.031 24.8906 168.031C25.4062 168.031 25.8464 167.896 26.2109 167.625C26.5755 167.354 26.8646 166.922 27.0781 166.328ZM22.4609 164.055H27.0938C27.0312 163.357 26.8542 162.833 26.5625 162.484C26.1146 161.943 25.5339 161.672 24.8203 161.672C24.1745 161.672 23.6302 161.888 23.1875 162.32C22.75 162.753 22.5078 163.331 22.4609 164.055ZM34.2422 160.703H35.6484V162.273C35.6484 162.951 35.6875 163.443 35.7656 163.75C35.849 164.052 36.0443 164.318 36.3516 164.547C36.6589 164.771 37.0443 164.883 37.5078 164.883C38.0391 164.883 38.7266 164.742 39.5703 164.461V160.703H40.9766V169H39.5703V165.656C38.7057 165.927 37.8984 166.062 37.1484 166.062C36.5182 166.062 35.9609 165.904 35.4766 165.586C34.9974 165.263 34.6719 164.87 34.5 164.406C34.3281 163.943 34.2422 163.432 34.2422 162.875V160.703ZM48.7812 166.328L50.2344 166.508C50.0052 167.357 49.5807 168.016 48.9609 168.484C48.3411 168.953 47.5495 169.188 46.5859 169.188C45.3724 169.188 44.4089 168.815 43.6953 168.07C42.987 167.32 42.6328 166.271 42.6328 164.922C42.6328 163.526 42.9922 162.443 43.7109 161.672C44.4297 160.901 45.362 160.516 46.5078 160.516C47.6172 160.516 48.5234 160.893 49.2266 161.648C49.9297 162.404 50.2812 163.466 50.2812 164.836C50.2812 164.919 50.2786 165.044 50.2734 165.211H44.0859C44.138 166.122 44.3958 166.82 44.8594 167.305C45.3229 167.789 45.901 168.031 46.5938 168.031C47.1094 168.031 47.5495 167.896 47.9141 167.625C48.2786 167.354 48.5677 166.922 48.7812 166.328ZM44.1641 164.055H48.7969C48.7344 163.357 48.5573 162.833 48.2656 162.484C47.8177 161.943 47.237 161.672 46.5234 161.672C45.8776 161.672 45.3333 161.888 44.8906 162.32C44.4531 162.753 44.2109 163.331 44.1641 164.055ZM52.0078 172.18V160.703H53.2891V161.781C53.5911 161.359 53.9323 161.044 54.3125 160.836C54.6927 160.622 55.1536 160.516 55.6953 160.516C56.4036 160.516 57.0286 160.698 57.5703 161.062C58.112 161.427 58.5208 161.943 58.7969 162.609C59.0729 163.271 59.2109 163.997 59.2109 164.789C59.2109 165.638 59.0573 166.404 58.75 167.086C58.4479 167.763 58.0052 168.284 57.4219 168.648C56.8438 169.008 56.2344 169.188 55.5938 169.188C55.125 169.188 54.7031 169.089 54.3281 168.891C53.9583 168.693 53.6536 168.443 53.4141 168.141V172.18H52.0078ZM53.2812 164.898C53.2812 165.966 53.4974 166.755 53.9297 167.266C54.362 167.776 54.8854 168.031 55.5 168.031C56.125 168.031 56.6589 167.768 57.1016 167.242C57.5495 166.711 57.7734 165.891 57.7734 164.781C57.7734 163.724 57.5547 162.932 57.1172 162.406C56.6849 161.88 56.1667 161.617 55.5625 161.617C54.9635 161.617 54.4323 161.898 53.9688 162.461C53.5104 163.018 53.2812 163.831 53.2812 164.898ZM66.5938 166.328L68.0469 166.508C67.8177 167.357 67.3932 168.016 66.7734 168.484C66.1536 168.953 65.362 169.188 64.3984 169.188C63.1849 169.188 62.2214 168.815 61.5078 168.07C60.7995 167.32 60.4453 166.271 60.4453 164.922C60.4453 163.526 60.8047 162.443 61.5234 161.672C62.2422 160.901 63.1745 160.516 64.3203 160.516C65.4297 160.516 66.3359 160.893 67.0391 161.648C67.7422 162.404 68.0938 163.466 68.0938 164.836C68.0938 164.919 68.0911 165.044 68.0859 165.211H61.8984C61.9505 166.122 62.2083 166.82 62.6719 167.305C63.1354 167.789 63.7135 168.031 64.4062 168.031C64.9219 168.031 65.362 167.896 65.7266 167.625C66.0911 167.354 66.3802 166.922 66.5938 166.328ZM61.9766 164.055H66.6094C66.5469 163.357 66.3698 162.833 66.0781 162.484C65.6302 161.943 65.0495 161.672 64.3359 161.672C63.6901 161.672 63.1458 161.888 62.7031 162.32C62.2656 162.753 62.0234 163.331 61.9766 164.055ZM71.2969 165.25V164.148C71.8906 164.143 72.2943 164.12 72.5078 164.078C72.7266 164.036 72.9323 163.911 73.125 163.703C73.3177 163.495 73.4141 163.234 73.4141 162.922C73.4141 162.542 73.2865 162.24 73.0312 162.016C72.7812 161.786 72.4557 161.672 72.0547 161.672C71.263 161.672 70.7083 162.138 70.3906 163.07L69.0547 162.852C69.4714 161.294 70.4766 160.516 72.0703 160.516C72.9557 160.516 73.6484 160.758 74.1484 161.242C74.6536 161.727 74.9062 162.305 74.9062 162.977C74.9062 163.654 74.5781 164.193 73.9219 164.594C74.3385 164.818 74.651 165.104 74.8594 165.453C75.0677 165.797 75.1719 166.206 75.1719 166.68C75.1719 167.424 74.901 168.029 74.3594 168.492C73.8177 168.956 73.0599 169.188 72.0859 169.188C70.1953 169.188 69.099 168.346 68.7969 166.664L70.1172 166.383C70.237 166.914 70.4792 167.326 70.8438 167.617C71.2135 167.909 71.6354 168.055 72.1094 168.055C72.5833 168.055 72.9766 167.922 73.2891 167.656C73.6068 167.385 73.7656 167.042 73.7656 166.625C73.7656 166.302 73.6667 166.021 73.4688 165.781C73.2708 165.542 73.0599 165.393 72.8359 165.336C72.612 165.273 72.2057 165.242 71.6172 165.242C71.5703 165.242 71.4635 165.245 71.2969 165.25ZM81.2969 160.703H83.4844L85.6641 167.344L88.0859 160.703H90.1094V169H88.7031V162.32L86.25 169H84.9922L82.6719 162V169H81.2969V160.703ZM97.9375 166.328L99.3906 166.508C99.1615 167.357 98.737 168.016 98.1172 168.484C97.4974 168.953 96.7057 169.188 95.7422 169.188C94.5286 169.188 93.5651 168.815 92.8516 168.07C92.1432 167.32 91.7891 166.271 91.7891 164.922C91.7891 163.526 92.1484 162.443 92.8672 161.672C93.5859 160.901 94.5182 160.516 95.6641 160.516C96.7734 160.516 97.6797 160.893 98.3828 161.648C99.0859 162.404 99.4375 163.466 99.4375 164.836C99.4375 164.919 99.4349 165.044 99.4297 165.211H93.2422C93.2943 166.122 93.5521 166.82 94.0156 167.305C94.4792 167.789 95.0573 168.031 95.75 168.031C96.2656 168.031 96.7057 167.896 97.0703 167.625C97.4349 167.354 97.724 166.922 97.9375 166.328ZM93.3203 164.055H97.9531C97.8906 163.357 97.7135 162.833 97.4219 162.484C96.974 161.943 96.3932 161.672 95.6797 161.672C95.0339 161.672 94.4896 161.888 94.0469 162.32C93.6094 162.753 93.3672 163.331 93.3203 164.055ZM106.578 165.961L107.961 166.141C107.81 167.094 107.422 167.841 106.797 168.383C106.177 168.919 105.414 169.188 104.508 169.188C103.372 169.188 102.458 168.818 101.766 168.078C101.078 167.333 100.734 166.268 100.734 164.883C100.734 163.987 100.883 163.203 101.18 162.531C101.477 161.859 101.927 161.357 102.531 161.023C103.141 160.685 103.802 160.516 104.516 160.516C105.417 160.516 106.154 160.745 106.727 161.203C107.299 161.656 107.667 162.302 107.828 163.141L106.461 163.352C106.331 162.794 106.099 162.375 105.766 162.094C105.438 161.812 105.039 161.672 104.57 161.672C103.862 161.672 103.286 161.927 102.844 162.438C102.401 162.943 102.18 163.745 102.18 164.844C102.18 165.958 102.393 166.768 102.82 167.273C103.247 167.779 103.805 168.031 104.492 168.031C105.044 168.031 105.505 167.862 105.875 167.523C106.245 167.185 106.479 166.664 106.578 165.961ZM115.695 160.703V169H114.297V165.766H113.484C112.99 165.766 112.62 165.831 112.375 165.961C112.135 166.086 111.784 166.495 111.32 167.188L110.094 169H108.352L109.867 166.766C110.331 166.083 110.792 165.698 111.25 165.609C110.448 165.5 109.852 165.211 109.461 164.742C109.076 164.273 108.883 163.734 108.883 163.125C108.883 162.406 109.135 161.823 109.641 161.375C110.151 160.927 110.888 160.703 111.852 160.703H115.695ZM114.297 161.867H112.297C111.458 161.867 110.917 161.997 110.672 162.258C110.432 162.518 110.312 162.823 110.312 163.172C110.312 163.667 110.49 164.031 110.844 164.266C111.203 164.495 111.836 164.609 112.742 164.609H114.297V161.867ZM117.859 160.703H119.266V167.844H123.156V160.703H124.562V167.844H125.469V171.352H124.312V169H117.859V160.703ZM131.469 160.703H132.875V164.156H136.773V160.703H138.18V169H136.773V165.32H132.875V169H131.469V160.703ZM145.719 167.977C145.198 168.419 144.695 168.732 144.211 168.914C143.732 169.096 143.216 169.188 142.664 169.188C141.753 169.188 141.052 168.966 140.562 168.523C140.073 168.076 139.828 167.505 139.828 166.812C139.828 166.406 139.919 166.036 140.102 165.703C140.289 165.365 140.531 165.094 140.828 164.891C141.13 164.688 141.469 164.534 141.844 164.43C142.12 164.357 142.536 164.286 143.094 164.219C144.229 164.083 145.065 163.922 145.602 163.734C145.607 163.542 145.609 163.419 145.609 163.367C145.609 162.794 145.477 162.391 145.211 162.156C144.852 161.839 144.318 161.68 143.609 161.68C142.948 161.68 142.458 161.797 142.141 162.031C141.828 162.26 141.596 162.669 141.445 163.258L140.07 163.07C140.195 162.482 140.401 162.008 140.688 161.648C140.974 161.284 141.388 161.005 141.93 160.812C142.471 160.615 143.099 160.516 143.812 160.516C144.521 160.516 145.096 160.599 145.539 160.766C145.982 160.932 146.307 161.143 146.516 161.398C146.724 161.648 146.87 161.966 146.953 162.352C147 162.591 147.023 163.023 147.023 163.648V165.523C147.023 166.831 147.052 167.659 147.109 168.008C147.172 168.352 147.292 168.682 147.469 169H146C145.854 168.708 145.76 168.367 145.719 167.977ZM145.602 164.836C145.091 165.044 144.326 165.221 143.305 165.367C142.727 165.451 142.318 165.544 142.078 165.648C141.839 165.753 141.654 165.906 141.523 166.109C141.393 166.307 141.328 166.529 141.328 166.773C141.328 167.148 141.469 167.461 141.75 167.711C142.036 167.961 142.453 168.086 143 168.086C143.542 168.086 144.023 167.969 144.445 167.734C144.867 167.495 145.177 167.169 145.375 166.758C145.526 166.44 145.602 165.971 145.602 165.352V164.836ZM154.625 165.961L156.008 166.141C155.857 167.094 155.469 167.841 154.844 168.383C154.224 168.919 153.461 169.188 152.555 169.188C151.419 169.188 150.505 168.818 149.812 168.078C149.125 167.333 148.781 166.268 148.781 164.883C148.781 163.987 148.93 163.203 149.227 162.531C149.523 161.859 149.974 161.357 150.578 161.023C151.188 160.685 151.849 160.516 152.562 160.516C153.464 160.516 154.201 160.745 154.773 161.203C155.346 161.656 155.714 162.302 155.875 163.141L154.508 163.352C154.378 162.794 154.146 162.375 153.812 162.094C153.484 161.812 153.086 161.672 152.617 161.672C151.909 161.672 151.333 161.927 150.891 162.438C150.448 162.943 150.227 163.745 150.227 164.844C150.227 165.958 150.44 166.768 150.867 167.273C151.294 167.779 151.852 168.031 152.539 168.031C153.091 168.031 153.552 167.862 153.922 167.523C154.292 167.185 154.526 166.664 154.625 165.961ZM157.898 160.703H164.43V169H163.031V161.867H159.305V166C159.305 166.964 159.273 167.599 159.211 167.906C159.148 168.214 158.977 168.482 158.695 168.711C158.414 168.94 158.008 169.055 157.477 169.055C157.148 169.055 156.771 169.034 156.344 168.992V167.82H156.961C157.253 167.82 157.461 167.792 157.586 167.734C157.711 167.672 157.794 167.576 157.836 167.445C157.878 167.315 157.898 166.891 157.898 166.172V160.703ZM171.969 167.977C171.448 168.419 170.945 168.732 170.461 168.914C169.982 169.096 169.466 169.188 168.914 169.188C168.003 169.188 167.302 168.966 166.812 168.523C166.323 168.076 166.078 167.505 166.078 166.812C166.078 166.406 166.169 166.036 166.352 165.703C166.539 165.365 166.781 165.094 167.078 164.891C167.38 164.688 167.719 164.534 168.094 164.43C168.37 164.357 168.786 164.286 169.344 164.219C170.479 164.083 171.315 163.922 171.852 163.734C171.857 163.542 171.859 163.419 171.859 163.367C171.859 162.794 171.727 162.391 171.461 162.156C171.102 161.839 170.568 161.68 169.859 161.68C169.198 161.68 168.708 161.797 168.391 162.031C168.078 162.26 167.846 162.669 167.695 163.258L166.32 163.07C166.445 162.482 166.651 162.008 166.938 161.648C167.224 161.284 167.638 161.005 168.18 160.812C168.721 160.615 169.349 160.516 170.062 160.516C170.771 160.516 171.346 160.599 171.789 160.766C172.232 160.932 172.557 161.143 172.766 161.398C172.974 161.648 173.12 161.966 173.203 162.352C173.25 162.591 173.273 163.023 173.273 163.648V165.523C173.273 166.831 173.302 167.659 173.359 168.008C173.422 168.352 173.542 168.682 173.719 169H172.25C172.104 168.708 172.01 168.367 171.969 167.977ZM171.852 164.836C171.341 165.044 170.576 165.221 169.555 165.367C168.977 165.451 168.568 165.544 168.328 165.648C168.089 165.753 167.904 165.906 167.773 166.109C167.643 166.307 167.578 166.529 167.578 166.773C167.578 167.148 167.719 167.461 168 167.711C168.286 167.961 168.703 168.086 169.25 168.086C169.792 168.086 170.273 167.969 170.695 167.734C171.117 167.495 171.427 167.169 171.625 166.758C171.776 166.44 171.852 165.971 171.852 165.352V164.836ZM180.477 160.703V164.289C180.924 164.289 181.24 164.203 181.422 164.031C181.604 163.859 181.87 163.359 182.219 162.531C182.547 161.745 182.841 161.242 183.102 161.023C183.357 160.81 183.763 160.703 184.32 160.703H184.836V161.867L184.453 161.859C184.078 161.859 183.839 161.914 183.734 162.023C183.625 162.138 183.458 162.479 183.234 163.047C183.026 163.589 182.833 163.964 182.656 164.172C182.479 164.38 182.203 164.57 181.828 164.742C182.438 164.904 183.031 165.466 183.609 166.43L185.156 169H183.609L182.102 166.43C181.794 165.909 181.526 165.568 181.297 165.406C181.068 165.245 180.794 165.164 180.477 165.164V169H179.039V165.164C178.727 165.164 178.456 165.245 178.227 165.406C177.997 165.562 177.729 165.904 177.422 166.43L175.914 169H174.367L175.906 166.43C176.49 165.466 177.086 164.904 177.695 164.742C177.279 164.549 176.987 164.341 176.82 164.117C176.654 163.888 176.404 163.346 176.07 162.492C175.956 162.206 175.833 162.029 175.703 161.961C175.568 161.893 175.367 161.859 175.102 161.859C175.034 161.859 174.896 161.862 174.688 161.867V160.703H174.883C175.424 160.703 175.805 160.737 176.023 160.805C176.247 160.867 176.445 161.005 176.617 161.219C176.794 161.427 177.023 161.865 177.305 162.531C177.648 163.349 177.909 163.846 178.086 164.023C178.268 164.201 178.586 164.289 179.039 164.289V160.703H180.477ZM187.273 160.703H193.055V167.844H193.953V171.352H192.797V169H186.266V171.352H185.109V167.844H185.852C186.841 166.5 187.315 164.12 187.273 160.703ZM188.445 161.867C188.341 164.56 187.924 166.552 187.195 167.844H191.656V161.867H188.445ZM200.922 167.977C200.401 168.419 199.898 168.732 199.414 168.914C198.935 169.096 198.419 169.188 197.867 169.188C196.956 169.188 196.255 168.966 195.766 168.523C195.276 168.076 195.031 167.505 195.031 166.812C195.031 166.406 195.122 166.036 195.305 165.703C195.492 165.365 195.734 165.094 196.031 164.891C196.333 164.688 196.672 164.534 197.047 164.43C197.323 164.357 197.74 164.286 198.297 164.219C199.432 164.083 200.268 163.922 200.805 163.734C200.81 163.542 200.812 163.419 200.812 163.367C200.812 162.794 200.68 162.391 200.414 162.156C200.055 161.839 199.521 161.68 198.812 161.68C198.151 161.68 197.661 161.797 197.344 162.031C197.031 162.26 196.799 162.669 196.648 163.258L195.273 163.07C195.398 162.482 195.604 162.008 195.891 161.648C196.177 161.284 196.591 161.005 197.133 160.812C197.674 160.615 198.302 160.516 199.016 160.516C199.724 160.516 200.299 160.599 200.742 160.766C201.185 160.932 201.51 161.143 201.719 161.398C201.927 161.648 202.073 161.966 202.156 162.352C202.203 162.591 202.227 163.023 202.227 163.648V165.523C202.227 166.831 202.255 167.659 202.312 168.008C202.375 168.352 202.495 168.682 202.672 169H201.203C201.057 168.708 200.964 168.367 200.922 167.977ZM200.805 164.836C200.294 165.044 199.529 165.221 198.508 165.367C197.93 165.451 197.521 165.544 197.281 165.648C197.042 165.753 196.857 165.906 196.727 166.109C196.596 166.307 196.531 166.529 196.531 166.773C196.531 167.148 196.672 167.461 196.953 167.711C197.24 167.961 197.656 168.086 198.203 168.086C198.745 168.086 199.227 167.969 199.648 167.734C200.07 167.495 200.38 167.169 200.578 166.758C200.729 166.44 200.805 165.971 200.805 165.352V164.836ZM204.414 160.703H205.82V167.031L209.719 160.703H211.234V169H209.828V162.711L205.93 169H204.414V160.703ZM209.297 157.562H210.258C210.18 158.214 209.94 158.714 209.539 159.062C209.143 159.411 208.615 159.586 207.953 159.586C207.286 159.586 206.753 159.414 206.352 159.07C205.956 158.721 205.719 158.219 205.641 157.562H206.602C206.674 157.917 206.818 158.182 207.031 158.359C207.25 158.531 207.542 158.617 207.906 158.617C208.328 158.617 208.646 158.534 208.859 158.367C209.078 158.195 209.224 157.927 209.297 157.562ZM212.594 160.703H219.336V161.867H216.664V169H215.266V161.867H212.594V160.703ZM226.172 166.328L227.625 166.508C227.396 167.357 226.971 168.016 226.352 168.484C225.732 168.953 224.94 169.188 223.977 169.188C222.763 169.188 221.799 168.815 221.086 168.07C220.378 167.32 220.023 166.271 220.023 164.922C220.023 163.526 220.383 162.443 221.102 161.672C221.82 160.901 222.753 160.516 223.898 160.516C225.008 160.516 225.914 160.893 226.617 161.648C227.32 162.404 227.672 163.466 227.672 164.836C227.672 164.919 227.669 165.044 227.664 165.211H221.477C221.529 166.122 221.786 166.82 222.25 167.305C222.714 167.789 223.292 168.031 223.984 168.031C224.5 168.031 224.94 167.896 225.305 167.625C225.669 167.354 225.958 166.922 226.172 166.328ZM221.555 164.055H226.188C226.125 163.357 225.948 162.833 225.656 162.484C225.208 161.943 224.628 161.672 223.914 161.672C223.268 161.672 222.724 161.888 222.281 162.32C221.844 162.753 221.602 163.331 221.555 164.055ZM234.812 165.961L236.195 166.141C236.044 167.094 235.656 167.841 235.031 168.383C234.411 168.919 233.648 169.188 232.742 169.188C231.607 169.188 230.693 168.818 230 168.078C229.312 167.333 228.969 166.268 228.969 164.883C228.969 163.987 229.117 163.203 229.414 162.531C229.711 161.859 230.161 161.357 230.766 161.023C231.375 160.685 232.036 160.516 232.75 160.516C233.651 160.516 234.388 160.745 234.961 161.203C235.534 161.656 235.901 162.302 236.062 163.141L234.695 163.352C234.565 162.794 234.333 162.375 234 162.094C233.672 161.812 233.273 161.672 232.805 161.672C232.096 161.672 231.521 161.927 231.078 162.438C230.635 162.943 230.414 163.745 230.414 164.844C230.414 165.958 230.628 166.768 231.055 167.273C231.482 167.779 232.039 168.031 232.727 168.031C233.279 168.031 233.74 167.862 234.109 167.523C234.479 167.185 234.714 166.664 234.812 165.961ZM237.375 160.703H238.781V163.945H240.562C241.724 163.945 242.617 164.172 243.242 164.625C243.872 165.073 244.188 165.693 244.188 166.484C244.188 167.177 243.924 167.771 243.398 168.266C242.878 168.755 242.042 169 240.891 169H237.375V160.703ZM238.781 167.844H240.258C241.148 167.844 241.784 167.734 242.164 167.516C242.544 167.297 242.734 166.956 242.734 166.492C242.734 166.133 242.594 165.812 242.312 165.531C242.031 165.25 241.409 165.109 240.445 165.109H238.781V167.844ZM1.05469 184.703H2.46094V191.031L6.35938 184.703H7.875V193H6.46875V186.711L2.57031 193H1.05469V184.703ZM11.8281 189.25V188.148C12.4219 188.143 12.8255 188.12 13.0391 188.078C13.2578 188.036 13.4635 187.911 13.6562 187.703C13.849 187.495 13.9453 187.234 13.9453 186.922C13.9453 186.542 13.8177 186.24 13.5625 186.016C13.3125 185.786 12.987 185.672 12.5859 185.672C11.7943 185.672 11.2396 186.138 10.9219 187.07L9.58594 186.852C10.0026 185.294 11.0078 184.516 12.6016 184.516C13.487 184.516 14.1797 184.758 14.6797 185.242C15.1849 185.727 15.4375 186.305 15.4375 186.977C15.4375 187.654 15.1094 188.193 14.4531 188.594C14.8698 188.818 15.1823 189.104 15.3906 189.453C15.599 189.797 15.7031 190.206 15.7031 190.68C15.7031 191.424 15.4323 192.029 14.8906 192.492C14.349 192.956 13.5911 193.188 12.6172 193.188C10.7266 193.188 9.63021 192.346 9.32812 190.664L10.6484 190.383C10.7682 190.914 11.0104 191.326 11.375 191.617C11.7448 191.909 12.1667 192.055 12.6406 192.055C13.1146 192.055 13.5078 191.922 13.8203 191.656C14.138 191.385 14.2969 191.042 14.2969 190.625C14.2969 190.302 14.1979 190.021 14 189.781C13.8021 189.542 13.5911 189.393 13.3672 189.336C13.1432 189.273 12.737 189.242 12.1484 189.242C12.1016 189.242 11.9948 189.245 11.8281 189.25ZM17.375 184.703H19.5625L21.7422 191.344L24.1641 184.703H26.1875V193H24.7812V186.32L22.3281 193H21.0703L18.75 186V193H17.375V184.703ZM34.0156 190.328L35.4688 190.508C35.2396 191.357 34.8151 192.016 34.1953 192.484C33.5755 192.953 32.7839 193.188 31.8203 193.188C30.6068 193.188 29.6432 192.815 28.9297 192.07C28.2214 191.32 27.8672 190.271 27.8672 188.922C27.8672 187.526 28.2266 186.443 28.9453 185.672C29.6641 184.901 30.5964 184.516 31.7422 184.516C32.8516 184.516 33.7578 184.893 34.4609 185.648C35.1641 186.404 35.5156 187.466 35.5156 188.836C35.5156 188.919 35.513 189.044 35.5078 189.211H29.3203C29.3724 190.122 29.6302 190.82 30.0938 191.305C30.5573 191.789 31.1354 192.031 31.8281 192.031C32.3438 192.031 32.7839 191.896 33.1484 191.625C33.513 191.354 33.8021 190.922 34.0156 190.328ZM29.3984 188.055H34.0312C33.9688 187.357 33.7917 186.833 33.5 186.484C33.0521 185.943 32.4714 185.672 31.7578 185.672C31.112 185.672 30.5677 185.888 30.125 186.32C29.6875 186.753 29.4453 187.331 29.3984 188.055ZM37.25 184.703H38.6562V188.156H42.5547V184.703H43.9609V193H42.5547V189.32H38.6562V193H37.25V184.703ZM51.7656 190.328L53.2188 190.508C52.9896 191.357 52.5651 192.016 51.9453 192.484C51.3255 192.953 50.5339 193.188 49.5703 193.188C48.3568 193.188 47.3932 192.815 46.6797 192.07C45.9714 191.32 45.6172 190.271 45.6172 188.922C45.6172 187.526 45.9766 186.443 46.6953 185.672C47.4141 184.901 48.3464 184.516 49.4922 184.516C50.6016 184.516 51.5078 184.893 52.2109 185.648C52.9141 186.404 53.2656 187.466 53.2656 188.836C53.2656 188.919 53.263 189.044 53.2578 189.211H47.0703C47.1224 190.122 47.3802 190.82 47.8438 191.305C48.3073 191.789 48.8854 192.031 49.5781 192.031C50.0938 192.031 50.5339 191.896 50.8984 191.625C51.263 191.354 51.5521 190.922 51.7656 190.328ZM47.1484 188.055H51.7812C51.7188 187.357 51.5417 186.833 51.25 186.484C50.8021 185.943 50.2214 185.672 49.5078 185.672C48.862 185.672 48.3177 185.888 47.875 186.32C47.4375 186.753 47.1953 187.331 47.1484 188.055ZM55 184.703H56.4062V188.156H60.3047V184.703H61.7109V193H60.3047V189.32H56.4062V193H55V184.703ZM63.8359 184.703H65.2422V191.031L69.1406 184.703H70.6562V193H69.25V186.711L65.3516 193H63.8359V184.703ZM79.3047 184.703V193H77.9062V189.766H77.0938C76.599 189.766 76.2292 189.831 75.9844 189.961C75.7448 190.086 75.3932 190.495 74.9297 191.188L73.7031 193H71.9609L73.4766 190.766C73.9401 190.083 74.401 189.698 74.8594 189.609C74.0573 189.5 73.4609 189.211 73.0703 188.742C72.6849 188.273 72.4922 187.734 72.4922 187.125C72.4922 186.406 72.7448 185.823 73.25 185.375C73.7604 184.927 74.4974 184.703 75.4609 184.703H79.3047ZM77.9062 185.867H75.9062C75.0677 185.867 74.526 185.997 74.2812 186.258C74.0417 186.518 73.9219 186.823 73.9219 187.172C73.9219 187.667 74.099 188.031 74.4531 188.266C74.8125 188.495 75.4453 188.609 76.3516 188.609H77.9062V185.867ZM81.4844 184.703H83.6719L85.8516 191.344L88.2734 184.703H90.2969V193H88.8906V186.32L86.4375 193H85.1797L82.8594 186V193H81.4844V184.703ZM92.4453 184.703H93.8516V191.031L97.75 184.703H99.2656V193H97.8594V186.711L93.9609 193H92.4453V184.703ZM105.828 184.703H107.234V188.289C107.682 188.289 107.995 188.203 108.172 188.031C108.354 187.859 108.62 187.359 108.969 186.531C109.245 185.875 109.469 185.443 109.641 185.234C109.812 185.026 110.01 184.885 110.234 184.812C110.458 184.74 110.818 184.703 111.312 184.703H111.594V185.867L111.203 185.859C110.833 185.859 110.596 185.914 110.492 186.023C110.383 186.138 110.216 186.479 109.992 187.047C109.779 187.589 109.583 187.964 109.406 188.172C109.229 188.38 108.956 188.57 108.586 188.742C109.19 188.904 109.784 189.466 110.367 190.43L111.906 193H110.359L108.859 190.43C108.552 189.914 108.284 189.576 108.055 189.414C107.826 189.247 107.552 189.164 107.234 189.164V193H105.828V184.703ZM117.977 184.703H124.508V193H123.109V185.867H119.383V190C119.383 190.964 119.352 191.599 119.289 191.906C119.227 192.214 119.055 192.482 118.773 192.711C118.492 192.94 118.086 193.055 117.555 193.055C117.227 193.055 116.849 193.034 116.422 192.992V191.82H117.039C117.331 191.82 117.539 191.792 117.664 191.734C117.789 191.672 117.872 191.576 117.914 191.445C117.956 191.315 117.977 190.891 117.977 190.172V184.703ZM126.57 196.195L126.414 194.875C126.721 194.958 126.99 195 127.219 195C127.531 195 127.781 194.948 127.969 194.844C128.156 194.74 128.31 194.594 128.43 194.406C128.518 194.266 128.661 193.917 128.859 193.359C128.885 193.281 128.927 193.167 128.984 193.016L125.836 184.703H127.352L129.078 189.508C129.302 190.117 129.503 190.758 129.68 191.43C129.841 190.784 130.034 190.154 130.258 189.539L132.031 184.703H133.438L130.281 193.141C129.943 194.052 129.68 194.68 129.492 195.023C129.242 195.487 128.956 195.826 128.633 196.039C128.31 196.258 127.924 196.367 127.477 196.367C127.206 196.367 126.904 196.31 126.57 196.195ZM134.117 184.703H135.523V186.273C135.523 186.951 135.562 187.443 135.641 187.75C135.724 188.052 135.919 188.318 136.227 188.547C136.534 188.771 136.919 188.883 137.383 188.883C137.914 188.883 138.602 188.742 139.445 188.461V184.703H140.852V193H139.445V189.656C138.581 189.927 137.773 190.062 137.023 190.062C136.393 190.062 135.836 189.904 135.352 189.586C134.872 189.263 134.547 188.87 134.375 188.406C134.203 187.943 134.117 187.432 134.117 186.875V184.703ZM143.023 184.703H144.43V191.836H147.633V184.703H149.039V191.836H152.25V184.703H153.648V193H143.023V184.703ZM161.5 190.328L162.953 190.508C162.724 191.357 162.299 192.016 161.68 192.484C161.06 192.953 160.268 193.188 159.305 193.188C158.091 193.188 157.128 192.815 156.414 192.07C155.706 191.32 155.352 190.271 155.352 188.922C155.352 187.526 155.711 186.443 156.43 185.672C157.148 184.901 158.081 184.516 159.227 184.516C160.336 184.516 161.242 184.893 161.945 185.648C162.648 186.404 163 187.466 163 188.836C163 188.919 162.997 189.044 162.992 189.211H156.805C156.857 190.122 157.115 190.82 157.578 191.305C158.042 191.789 158.62 192.031 159.312 192.031C159.828 192.031 160.268 191.896 160.633 191.625C160.997 191.354 161.286 190.922 161.5 190.328ZM156.883 188.055H161.516C161.453 187.357 161.276 186.833 160.984 186.484C160.536 185.943 159.956 185.672 159.242 185.672C158.596 185.672 158.052 185.888 157.609 186.32C157.172 186.753 156.93 187.331 156.883 188.055ZM164.766 184.703H166.953L169.133 191.344L171.555 184.703H173.578V193H172.172V186.32L169.719 193H168.461L166.141 186V193H164.766V184.703ZM175.852 196.195L175.695 194.875C176.003 194.958 176.271 195 176.5 195C176.812 195 177.062 194.948 177.25 194.844C177.438 194.74 177.591 194.594 177.711 194.406C177.799 194.266 177.943 193.917 178.141 193.359C178.167 193.281 178.208 193.167 178.266 193.016L175.117 184.703H176.633L178.359 189.508C178.583 190.117 178.784 190.758 178.961 191.43C179.122 190.784 179.315 190.154 179.539 189.539L181.312 184.703H182.719L179.562 193.141C179.224 194.052 178.961 194.68 178.773 195.023C178.523 195.487 178.237 195.826 177.914 196.039C177.591 196.258 177.206 196.367 176.758 196.367C176.487 196.367 176.185 196.31 175.852 196.195ZM1.0625 208.703H4.30469C5.10156 208.703 5.69271 208.771 6.07812 208.906C6.46875 209.036 6.80208 209.279 7.07812 209.633C7.35938 209.987 7.5 210.411 7.5 210.906C7.5 211.302 7.41667 211.648 7.25 211.945C7.08854 212.237 6.84375 212.482 6.51562 212.68C6.90625 212.81 7.22917 213.055 7.48438 213.414C7.74479 213.768 7.875 214.19 7.875 214.68C7.82292 215.466 7.54167 216.049 7.03125 216.43C6.52083 216.81 5.77865 217 4.80469 217H1.0625V208.703ZM2.46875 212.195H3.96875C4.56771 212.195 4.97917 212.164 5.20312 212.102C5.42708 212.039 5.6276 211.914 5.80469 211.727C5.98177 211.534 6.07031 211.305 6.07031 211.039C6.07031 210.602 5.91406 210.297 5.60156 210.125C5.29427 209.953 4.76562 209.867 4.01562 209.867H2.46875V212.195ZM2.46875 215.844H4.32031C5.11719 215.844 5.66406 215.753 5.96094 215.57C6.25781 215.383 6.41406 215.062 6.42969 214.609C6.42969 214.344 6.34375 214.099 6.17188 213.875C6 213.646 5.77604 213.503 5.5 213.445C5.22396 213.383 4.78125 213.352 4.17188 213.352H2.46875V215.844ZM14.7812 215.977C14.2604 216.419 13.7578 216.732 13.2734 216.914C12.7943 217.096 12.2786 217.188 11.7266 217.188C10.8151 217.188 10.1146 216.966 9.625 216.523C9.13542 216.076 8.89062 215.505 8.89062 214.812C8.89062 214.406 8.98177 214.036 9.16406 213.703C9.35156 213.365 9.59375 213.094 9.89062 212.891C10.1927 212.688 10.5312 212.534 10.9062 212.43C11.1823 212.357 11.599 212.286 12.1562 212.219C13.2917 212.083 14.1276 211.922 14.6641 211.734C14.6693 211.542 14.6719 211.419 14.6719 211.367C14.6719 210.794 14.5391 210.391 14.2734 210.156C13.9141 209.839 13.3802 209.68 12.6719 209.68C12.0104 209.68 11.5208 209.797 11.2031 210.031C10.8906 210.26 10.6589 210.669 10.5078 211.258L9.13281 211.07C9.25781 210.482 9.46354 210.008 9.75 209.648C10.0365 209.284 10.4505 209.005 10.9922 208.812C11.5339 208.615 12.1615 208.516 12.875 208.516C13.5833 208.516 14.1589 208.599 14.6016 208.766C15.0443 208.932 15.3698 209.143 15.5781 209.398C15.7865 209.648 15.9323 209.966 16.0156 210.352C16.0625 210.591 16.0859 211.023 16.0859 211.648V213.523C16.0859 214.831 16.1146 215.659 16.1719 216.008C16.2344 216.352 16.3542 216.682 16.5312 217H15.0625C14.9167 216.708 14.8229 216.367 14.7812 215.977ZM14.6641 212.836C14.1536 213.044 13.388 213.221 12.3672 213.367C11.7891 213.451 11.3802 213.544 11.1406 213.648C10.901 213.753 10.7161 213.906 10.5859 214.109C10.4557 214.307 10.3906 214.529 10.3906 214.773C10.3906 215.148 10.5312 215.461 10.8125 215.711C11.099 215.961 11.5156 216.086 12.0625 216.086C12.6042 216.086 13.0859 215.969 13.5078 215.734C13.9297 215.495 14.2396 215.169 14.4375 214.758C14.5885 214.44 14.6641 213.971 14.6641 213.352V212.836ZM18.3203 208.703H19.7266V215.836H22.9297V208.703H24.3359V215.836H27.5469V208.703H28.9453V217H18.3203V208.703ZM36.7969 214.328L38.25 214.508C38.0208 215.357 37.5964 216.016 36.9766 216.484C36.3568 216.953 35.5651 217.188 34.6016 217.188C33.388 217.188 32.4245 216.815 31.7109 216.07C31.0026 215.32 30.6484 214.271 30.6484 212.922C30.6484 211.526 31.0078 210.443 31.7266 209.672C32.4453 208.901 33.3776 208.516 34.5234 208.516C35.6328 208.516 36.5391 208.893 37.2422 209.648C37.9453 210.404 38.2969 211.466 38.2969 212.836C38.2969 212.919 38.2943 213.044 38.2891 213.211H32.1016C32.1536 214.122 32.4115 214.82 32.875 215.305C33.3385 215.789 33.9167 216.031 34.6094 216.031C35.125 216.031 35.5651 215.896 35.9297 215.625C36.2943 215.354 36.5833 214.922 36.7969 214.328ZM32.1797 212.055H36.8125C36.75 211.357 36.5729 210.833 36.2812 210.484C35.8333 209.943 35.2526 209.672 34.5391 209.672C33.8932 209.672 33.349 209.888 32.9062 210.32C32.4688 210.753 32.2266 211.331 32.1797 212.055ZM40.0312 208.703H44.8047V209.867H41.4375V217H40.0312V208.703ZM44.9844 212.852C44.9844 211.315 45.4115 210.177 46.2656 209.438C46.9792 208.823 47.849 208.516 48.875 208.516C50.0156 208.516 50.9479 208.891 51.6719 209.641C52.3958 210.385 52.7578 211.417 52.7578 212.734C52.7578 213.802 52.5964 214.643 52.2734 215.258C51.9557 215.867 51.4896 216.341 50.875 216.68C50.2656 217.018 49.599 217.188 48.875 217.188C47.7135 217.188 46.7734 216.815 46.0547 216.07C45.3411 215.326 44.9844 214.253 44.9844 212.852ZM46.4297 212.852C46.4297 213.914 46.6615 214.711 47.125 215.242C47.5885 215.768 48.1719 216.031 48.875 216.031C49.5729 216.031 50.1536 215.766 50.6172 215.234C51.0807 214.703 51.3125 213.893 51.3125 212.805C51.3125 211.779 51.0781 211.003 50.6094 210.477C50.1458 209.945 49.5677 209.68 48.875 209.68C48.1719 209.68 47.5885 209.943 47.125 210.469C46.6615 210.995 46.4297 211.789 46.4297 212.852ZM58.875 208.703H65.4219V217H64.0156V209.867H60.2812V217H58.875V208.703ZM67.5391 208.703H68.9453V215.031L72.8438 208.703H74.3594V217H72.9531V210.711L69.0547 217H67.5391V208.703ZM75.7188 208.703H82.4609V209.867H79.7891V217H78.3906V209.867H75.7188V208.703ZM83.0938 212.852C83.0938 211.315 83.5208 210.177 84.375 209.438C85.0885 208.823 85.9583 208.516 86.9844 208.516C88.125 208.516 89.0573 208.891 89.7812 209.641C90.5052 210.385 90.8672 211.417 90.8672 212.734C90.8672 213.802 90.7057 214.643 90.3828 215.258C90.0651 215.867 89.599 216.341 88.9844 216.68C88.375 217.018 87.7083 217.188 86.9844 217.188C85.8229 217.188 84.8828 216.815 84.1641 216.07C83.4505 215.326 83.0938 214.253 83.0938 212.852ZM84.5391 212.852C84.5391 213.914 84.7708 214.711 85.2344 215.242C85.6979 215.768 86.2812 216.031 86.9844 216.031C87.6823 216.031 88.263 215.766 88.7266 215.234C89.1901 214.703 89.4219 213.893 89.4219 212.805C89.4219 211.779 89.1875 211.003 88.7188 210.477C88.2552 209.945 87.6771 209.68 86.9844 209.68C86.2812 209.68 85.6979 209.943 85.2344 210.469C84.7708 210.995 84.5391 211.789 84.5391 212.852ZM92.5625 208.703H94.75L96.9297 215.344L99.3516 208.703H101.375V217H99.9688V210.32L97.5156 217H96.2578L93.9375 210V217H92.5625V208.703ZM103.547 208.703H104.953V215.844H108.844V208.703H110.25V215.844H111.156V219.352H110V217H103.547V208.703ZM118.109 215.977C117.589 216.419 117.086 216.732 116.602 216.914C116.122 217.096 115.607 217.188 115.055 217.188C114.143 217.188 113.443 216.966 112.953 216.523C112.464 216.076 112.219 215.505 112.219 214.812C112.219 214.406 112.31 214.036 112.492 213.703C112.68 213.365 112.922 213.094 113.219 212.891C113.521 212.688 113.859 212.534 114.234 212.43C114.51 212.357 114.927 212.286 115.484 212.219C116.62 212.083 117.456 211.922 117.992 211.734C117.997 211.542 118 211.419 118 211.367C118 210.794 117.867 210.391 117.602 210.156C117.242 209.839 116.708 209.68 116 209.68C115.339 209.68 114.849 209.797 114.531 210.031C114.219 210.26 113.987 210.669 113.836 211.258L112.461 211.07C112.586 210.482 112.792 210.008 113.078 209.648C113.365 209.284 113.779 209.005 114.32 208.812C114.862 208.615 115.49 208.516 116.203 208.516C116.911 208.516 117.487 208.599 117.93 208.766C118.372 208.932 118.698 209.143 118.906 209.398C119.115 209.648 119.26 209.966 119.344 210.352C119.391 210.591 119.414 211.023 119.414 211.648V213.523C119.414 214.831 119.443 215.659 119.5 216.008C119.562 216.352 119.682 216.682 119.859 217H118.391C118.245 216.708 118.151 216.367 118.109 215.977ZM117.992 212.836C117.482 213.044 116.716 213.221 115.695 213.367C115.117 213.451 114.708 213.544 114.469 213.648C114.229 213.753 114.044 213.906 113.914 214.109C113.784 214.307 113.719 214.529 113.719 214.773C113.719 215.148 113.859 215.461 114.141 215.711C114.427 215.961 114.844 216.086 115.391 216.086C115.932 216.086 116.414 215.969 116.836 215.734C117.258 215.495 117.568 215.169 117.766 214.758C117.917 214.44 117.992 213.971 117.992 213.352V212.836ZM122.352 214.156L121.922 208.086V205.547H123.664V208.086L123.258 214.156H122.352ZM121.984 217V215.398H123.602V217H121.984Z" fill="#444444"/>
</svg>
